<?xml version="1.0"?>
<svg width="1024" height="768" xmlns="http://www.w3.org/2000/svg" xmlns:svg="http://www.w3.org/2000/svg">
 <defs>
  <style type="text/css">.land
			{
				fill: #0d0d0d;
				fill-opacity: 1;
				stroke:white;
				stroke-opacity: 1;
				stroke-width:0.5;
			}</style>
  <!-- All areas are listed in the line below. You can use this list in your script. -->
  <!--{id:"GE-AB"},{id:"GE-AJ"},{id:"GE-GU"},{id:"GE-IM"},{id:"GE-KA"},{id:"GE-KK"},{id:"GE-MM"},{id:"GE-RL"},{id:"GE-SJ"},{id:"GE-SK"},{id:"GE-SO"},{id:"GE-SZ"},{id:"GE-TB"}-->
 </defs>
 <g class="layer">
  <title>Layer 1</title>
  <g id="svg_1">
   <path class="land" d="m120.99,48.6l1.25,1.14l1.6,-0.26l0.82,0.35l2.6,2.34l2.4,-0.45l0.98,0.31l1.28,0.75l0.82,0.16l1.23,-0.01l0.74,0.09l1.91,0.32l1.11,-0.04l0.84,-0.54l0.85,-0.7l0.57,-0.33l2.28,1.46l2.38,0.31l1.14,0.71l1,1.42l1.21,0.52l1.27,0.45l2.09,0.38l2.89,1.04l0.94,0.08l1.8,-0.99l2.93,-3.53l0.95,-0.63l1.05,-0.21l0.77,-0.28l0.81,-0.48l1.18,-0.91l1.25,0.02l0.71,0.17l1.01,0.91l0.64,1.03l0.61,1.25l0.67,0.57l1.07,0.43l0.98,0.23l2.03,0.09l1.39,0.65l1.77,0.97l1.18,0.84l1.07,1.07l1.43,0.78l2.41,1.07l1.42,0.78l1.55,1.14l4.16,-0.07l1.42,0.13l1.53,0.94l0.61,0.61l0.15,0.82l-0.42,1.52l0.07,0.48l0.51,0.63l1.06,0.38l1.08,0.68l0.88,0.84l1.21,2.75l1.57,0.55l1.85,-0.15l1.06,-0.36l0.67,-0.88l0.49,-0.38l0.73,-0.12l0.87,0.34l1.27,1.05l1.33,0.86l1.35,0.65l0.76,1.02l0.62,1.08l0.12,1.98l0.27,0.25l1.87,1.11l3.39,0.81l1.33,-0.06l0.59,-0.52l0.37,-0.91l0.54,-0.75l0.67,-0.62l0.74,-0.06l1.56,0.12l1.49,0.49l1.46,0.75l1.75,0.52l2.63,1.01l2.12,0.68l1.94,1l2.03,1.49l3.68,0.71l0.93,0.42l1.1,1l1.25,1.74l1.45,-0.08l0.89,0.06l-0.03,0.22l0.26,-0.51l1.04,-0.61l0.95,-0.91l1.3,-2.1l0.83,-0.54l0.52,0.14l0.68,0.36l0.44,0l1.23,-0.55l1.02,-0.13l0.74,0.21l1.47,1.35l0.31,7.04l0.31,0.61l0.59,0.32l0.85,0.19l2.79,0.45l0.79,-0.05l1.26,0.53l0.6,0.66l0.41,0.66l0.83,0.87l1.12,0.84l2.58,1.28l2.32,1.51l0.64,0.79l0.42,1.15l2.24,0.85l1.09,1.32l1.96,0.34l2.81,1.42l0.91,0.25l1.19,-0.16l1.09,-0.91l0.89,-0.09l0.51,0.19l3.09,1.65l0.46,0.33l0.92,0.22l0.9,0.04l0.98,-0.52l0.8,-0.91l0.6,-1.21l0.43,-0.25l0.57,0.03l1.42,0.93l1.76,1.83l2.22,0.64l1.42,0.13l2.48,1.15l0.63,-0.01l1.25,-0.28l2.55,-0.85l1.3,-0.79l0.55,-1.15l-0.69,-1.52l-0.14,-0.78l0.24,-0.8l0.39,-0.59l0.67,-0.2l0.74,0.14l1.46,1.5l3.12,1.37l2.37,0.22l0.66,0.27l0.46,0.53l0.91,1.53l0.59,0.45l0.92,-0.08l1.52,-0.76l2.46,-0.14l1.99,0.21l1.47,1.32l1.01,1.52l1.13,0.35l1.11,0.1l2.76,-1.67l2.7,-0.15l1.06,-0.35l2.82,-2.13l1.02,-0.07l1.14,0.37l0,0l-0.34,0.77l-0.29,1.16l-0.98,2l-0.26,1.01l-1.01,2.15l-0.13,0.62l-0.01,4.03l1.11,2.26l0.1,0.96l-0.47,1.16l-0.28,1.68l-1,2.07l-0.2,0.89l-1.91,3.93l-0.25,0.39l-1.66,1.71l-0.94,0.79l-1.13,0.65l-0.52,0.48l-0.33,0.48l-0.54,1.13l-0.17,0.61l-0.14,1.2l-0.46,0.95l-0.24,0.28l-0.41,0.18l-1.2,0.17l-0.95,0.34l-0.85,0.1l-2.22,0.05l-1.53,0.5l-1.96,0.17l-3.29,1.58l-1.76,0.31l-1.05,0.39l-1.8,0.14l-0.56,0.14l-2.45,1.14l-0.35,0.32l-0.21,0.43l0.05,0.55l0.4,1.06l0.17,1.31l0.6,1.03l0.22,0.17l0.42,0.1l1.86,0.04l0.46,0.27l0.16,0.75l-0.1,0.63l-0.4,0.91l-0.14,0.65l0,3.78l0.28,0.68l0.41,0.41l0.59,0.29l0.4,0.48l0.15,0.46l0.08,1.8l0.17,0.57l0.87,0.9l0.16,0.51l-0.07,0.68l-0.68,1.47l-0.66,0.9l-1.03,0.39l-1.64,0.81l-0.7,0.74l-0.41,0.75l-0.66,0.84l-0.16,0.45l0.17,0.48l1.44,1.44l0,0.65l0.56,1.6l0.12,2.88l0.09,0.48l0.36,0.74l0.08,0.48l0.04,6.92l0.1,1.16l0.39,0.89l0.26,1.02l0.4,0.68l2.36,2.42l0.52,0.94l0.66,0.86l0.3,0.62l0.1,0.73l-0.02,2.54l-0.08,0.56l-0.39,0.96l-0.26,1.62l-0.37,0.91l-0.26,1.01l-0.6,0.67l-1.12,0.58l-2,0.68l-1.11,1.36l-0.89,1.83l-1.56,1.81l-0.57,1.02l-2.43,2.5l-0.85,1.37l-1.74,1.72l-0.9,0.48l-1.02,0.77l-0.99,0.54l-1.75,1.47l-1.01,0.54l-1.04,0.8l-7.51,3.66l-1.86,0.29l-0.87,0.35l-0.9,0.2l-1.42,0.63l-0.44,0.32l-0.5,0.55l-0.8,1.3l-2.25,2.3l-0.33,0.44l-0.33,0.67l-0.75,0.86l-2.9,1.47l-3.07,1.43l-2.46,1.33l0,0l-0.29,-1.1l-0.13,-1.33l-0.3,-1.46l-0.26,-1.68l-0.3,-2.08l-0.45,-4.03l-0.07,-1.29l-0.23,-1.46l-0.16,-2.13l-0.13,-1.06l-0.99,-6.29l-0.19,-0.98l-0.3,-1.15l-0.2,-0.49l-0.26,-1.46l-0.16,-0.76l-0.13,-0.85l-0.43,-0.97l-0.3,-1.02l-0.68,-2.44l-0.27,-2l-2.88,-8.62l-0.79,-2.31l-0.92,-1.86l-0.26,-0.58l-0.2,-0.62l-0.39,-0.76l-0.92,-1.56l-0.95,-1.06l-0.46,-0.05l-1.31,0.31l-0.29,-0.71l-0.4,-0.31l-0.39,-0.67l-0.75,-0.93l-1.41,-0.85l-1.81,-0.58l-0.88,0.05l-0.53,0l-0.72,-0.22l-0.52,-0.14l-0.59,-0.13l-0.4,-0.27l-0.95,-0.4l-0.49,-0.13l-0.52,-0.14l-0.53,-0.04l-0.33,0.13l-0.32,0l-0.79,-0.13l-0.52,-0.22l-0.73,-0.54l-0.59,-0.53l-1.05,-0.8l-0.91,-0.22l-0.66,-0.27l-0.82,-0.27l-0.59,-0.13l-1.7,-0.45l-0.69,-0.22l-0.69,-0.18l-0.62,-0.4l-1.25,-0.35l-1.74,-0.09l-1.14,0.35l-0.3,0.14l-0.56,0.44l-0.62,0.54l-0.59,0.31l-0.56,0l-0.46,-0.12l-0.52,-0.11l-0.79,-0.26l-0.95,-0.14l-0.36,-0.08l-0.52,-0.54l-0.1,-0.22l-0.36,-0.94l-0.07,-0.71l-0.19,-0.27l-0.3,-0.17l-0.43,-0.58l-0.36,-0.45l-0.75,-0.53l-0.16,-0.27l-0.07,-0.53l-0.79,-0.98l-0.69,-0.5l-0.29,-0.53l-0.43,-1.34l-0.06,-1.07l-0.2,-1.24l-0.29,-1.07l-0.23,-1.56l-0.23,-1.92l-0.72,-4.06l-0.37,-1.83l-0.42,-2.01l-0.26,-0.75l-0.17,-0.36l-0.52,-1.16l-0.23,-0.89l-0.23,-0.5l-0.43,-0.89l-0.23,-0.4l-0.36,-0.54l-0.36,-0.58l-0.23,-0.8l-0.36,-0.58l-0.85,-0.81l-0.26,-0.22l-0.3,-0.31l-1.15,-0.45l-0.91,0.05l-0.2,0.35l-0.75,0.27l-1.48,-0.22l-0.95,0.04l-0.89,0.94l-0.46,0.49l-0.29,0.32l-0.26,0.26l-0.23,0.23l-0.66,0.18l-0.56,-0.23l-0.22,-0.18l-0.2,-0.22l-0.36,-1.16l-0.59,-0.63l-0.89,-0.98l-0.29,-0.36l-0.92,-0.44l-0.13,-0.18l-0.33,-0.9l-0.29,-0.76l-0.17,-0.35l-1.08,-1.39l-0.49,-0.45l-1.12,-0.66l-0.39,-0.76l-0.52,-0.23l-0.27,-0.71l-0.26,-0.45l-0.39,-0.63l-0.63,-1.07l-0.72,-0.89l-0.36,-0.41l-1.41,-1.2l-0.69,-0.23l-1.67,-0.09l-1.15,-0.58l-1.57,-0.36l-1.44,-0.04l-0.33,-0.18l-0.43,0l-0.45,0.13l-0.56,0.32l-0.33,0l-0.39,-0.14l-0.23,-0.22l-0.89,-0.22l-2.95,-0.41l-2.23,0.05l-0.65,0.22l-0.89,0.09l-0.39,0l-1.38,-0.18l-0.56,-0.13l-0.46,0l-0.36,0.18l-0.72,-0.05l-0.78,-0.13l-1.74,-0.76l-1.22,-0.99l-1.14,-0.26l-0.43,-0.18l-0.36,0l-1.25,0.62l-2.39,0.67l-1.44,0.32l-1.31,0.09l-0.76,-0.05l-0.36,-0.13l-0.49,-0.32l-1.38,-1.65l-0.59,-1.16l-0.49,-0.63l-0.88,-1.16l-0.23,-0.54l-0.43,-0.67l-0.33,-0.27l-0.75,-0.49l-0.39,-0.41l-0.37,-0.4l-0.52,-0.36l-0.75,-0.31l-0.3,-0.05l-0.23,0l-0.59,0l-0.46,0.05l-0.26,0.22l-0.52,0l-0.89,-0.04l-0.39,-0.18l-0.33,0l-0.33,0.09l-0.33,0.27l-0.26,0.18l-0.26,0.13l-0.49,-0.54l-0.2,-0.49l-0.43,-0.36l-0.26,-0.18l-0.53,-0.27l-0.32,-0.18l-0.3,-0.13l-0.45,0l-0.27,0.13l-0.85,-0.35l-0.36,-0.27l-0.52,-0.58l-0.43,-0.23l-0.26,-0.04l-0.46,-0.18l-0.63,-0.54l-0.22,-0.36l-0.4,-0.27l-0.52,-0.31l-0.76,-0.36l-0.16,-0.04l-0.89,-0.05l-1.44,0.36l-1.08,0.63l-0.43,0.36l-0.29,0.26l-0.13,0.14l-0.59,0.81l-0.33,0.4l-0.59,0.54l0,0.08l0.06,0.32l0.04,0.27l-0.17,0.31l-0.13,0.14l-0.39,-0.09l-0.66,-0.54l-0.46,-0.72l-0.55,-0.36l-0.63,-0.58l-0.45,-0.4l-0.89,-1.3l-0.39,-0.31l-0.79,0l-0.36,-0.18l-0.3,-0.36l-0.46,-0.45l-0.39,-0.45l-0.26,-0.22l-0.76,-0.72l-0.16,-0.36l-0.43,-2.24l-0.39,-5.94l-0.46,-3.97l-0.66,-3.14l-0.52,-1.97l-0.49,-1.48l-0.49,-1.04l-0.46,-0.67l-0.33,-0.31l-0.33,-0.18l-0.42,-0.27l-1.02,-0.41l-0.49,-0.09l-0.26,-0.04l-0.3,-0.23l-0.29,-0.36l-0.63,-0.31l-0.52,-0.27l-1.94,-0.31l-0.65,-0.27l-1.51,-0.36l-1.15,-0.54l-1.08,-0.72l-2.36,-1.93l-0.72,-0.36l-1.18,0.04l-0.13,-0.13l-0.03,-0.18l-1.54,-1.04l-0.79,-0.49l-0.17,-0.09l-1.57,-1.03l-0.82,-0.23l-1.47,0l-1.48,-0.09l-1.93,-0.45l-1.09,-0.31l-0.65,-0.23l-0.64,0.05l-0.1,-2.24l0.57,-2.59l-0.15,-1.26l0.26,-0.88l0.57,-0.77l2.03,-3.86l0.33,-1.17l0.52,-2.91l0.71,-0.82l1.34,-1.78l0.12,-0.94l0.38,-0.85l0.78,-0.67l2.5,-2.6l0.4,-0.95l-0.04,-0.71l-0.62,-1.68l0.03,-1.2l0.4,-1.04l0.58,-0.71l0.57,-0.13l2.12,0.48l1.18,-0.19l1.47,-0.57l1.72,-0.8l1.7,-0.39l0.78,0.01l1.16,0.44l2.31,-0.04l0.86,-0.33l0.86,-0.69l1.13,-0.41l1.45,-0.12l1.72,0.27l2.25,1.33z" fill="black" id="GE-AB"/>
   <path class="land" d="m296.65,316.33l0.31,-0.21l0.88,0.07l0.63,0.09l0.91,0.38l0.49,0.1l6.16,0.05l0.66,0.13l0.92,0.39l0.5,0.09l5.14,0.03l1.04,0.15l2.6,1.24l0.57,0.82l0.07,0.73l-0.07,3.03l0.09,0.44l0.28,0.35l0.45,0.12l0.8,0.03l3.21,-0.06l0.92,0.2l0.5,0.34l0.35,0.38l0.72,1.19l0.44,0.54l0.5,0.32l1.2,0.35l0.59,0.28l1.96,0.32l0.82,0.44l0.29,0.25l0.17,0.54l0.09,1.23l0.35,0.47l0.41,0.07l0.52,-0.16l3.16,-1.58l0.99,-0.22l1.2,-0.45l0.5,-0.06l4.1,0.03l0.83,0.03l0.48,0.14l2.52,1.19l0.59,0.6l0.64,1.2l0.54,1.52l1.39,-0.41l0.9,-0.39l2.26,-0.24l0.76,-0.32l0.85,-0.2l6.04,0.1l2.84,-2.72l2.3,-1.17l1.74,-1.46l0.44,-0.15l0.47,-0.05l2.61,0.01l0.79,0.09l0.42,0.2l1.73,1.65l0.47,0.62l1.46,3.01l0.48,0.49l0.42,0.16l0.47,0.05l4.09,0.03l0,0l0.28,1.16l1.63,3.21l0.12,0.45l0.03,0.65l0.02,3.42l-0.11,0.81l-0.39,0.64l-1.7,1.68l-0.33,0.68l-0.05,1.5l0.14,0.58l0.41,0.85l0.18,0.83l1.38,2.77l1.51,1.73l0.47,0.85l0.42,0.35l1.92,0.91l0.85,0.75l1.24,2.39l2.22,2.21l0.38,0.47l0.24,0.56l0.19,1.45l0.35,0.72l0.48,1.31l0.82,2.69l0,0l-0.61,0.35l-0.5,0.65l-0.22,0.69l0.08,1.79l-0.14,0.94l-1.46,2.99l0.36,0.5l0.15,1.76l-0.79,0.33l-0.75,0.68l-0.89,1.73l-1.54,-0.13l-0.5,0.43l-0.14,0.83l-0.47,0.46l-0.86,0.3l-0.36,0.36l-0.71,1.65l1.27,2.15l0.29,1.25l-0.03,0.58l-0.32,0.5l-0.79,0.04l-1.08,-0.89l-0.93,0.04l-2.98,0.91l-2.87,-0.16l-0.9,-0.39l-1.15,-1.14l-1.77,-1.1l-0.83,-1.47l-2.62,0.05l-1.68,0.27l-1.05,-0.61l-1.19,-0.71l-1.36,0.12l-0.79,0.18l-1.04,-0.42l-0.87,-1.07l-0.87,-0.53l-0.86,-0.28l-1.7,-1.32l-0.83,-0.17l-2.08,0.34l-1.69,-0.64l-4.77,0.22l-0.65,0.33l-0.66,-1.93l-0.36,-0.36l-0.61,-0.21l-0.73,-0.78l-1.47,-0.06l-2.29,0.88l-0.76,0.01l-1,0.15l-0.9,0.3l-1.07,0.08l-0.23,-1.11l-0.79,-0.14l-1.14,0.7l-1.77,-0.38l-0.96,0.37l-3,2.18l-0.64,0.15l-0.8,-0.24l-2.71,-1.48l-0.97,-0.13l-1.58,0.02l-0.5,-0.07l-0.37,-0.64l-0.04,-0.86l-1.42,-1.43l-2.58,0.11l-0.92,1.26l-2.89,2.01l-0.57,0.23l-1.25,0.3l-0.49,1.37l-0.82,0.73l-0.06,1.22l-1.23,1.44l-0.81,1.42l-3.15,1.01l-0.24,0.83l-1.01,1.44l-1.61,0.89l-0.54,-0.02l-0.95,-1.25l-0.48,-0.96l-1.3,-0.59l-1.15,-0.31l-0.3,-1.11l-0.76,-0.42l-1.59,-0.7l-1.63,-0.8l-3.01,0.11l-1.52,-0.33l-0.25,-0.5l0.27,-0.76l0.57,-0.44l0.1,-0.61l-0.33,-0.71l-1.16,-0.53l-3.89,1.71l-1.43,0.35l-1.04,0.16l-1.05,-0.45l-2.97,-1.97l-1.53,-1.41l-2.97,-1.1l-0.48,-0.79l-0.9,-0.34l-1.58,-0.12l-1.12,-0.52l0.1,-1.17l0.13,-0.22l0.23,-0.26l0.06,-0.57l0.2,-0.18l0.26,-0.04l0.23,-0.17l0.4,-0.35l0.23,-1.01l0.16,-1.35l0.1,-1.83l-0.03,-1.53l0.32,-1.84l0.59,-1.74l0.63,-0.88l0.42,-0.39l0.2,-0.35l0.29,-0.61l0.56,-0.74l0.49,-0.4l0.66,-0.87l0.23,-0.44l1.02,-1.27l0.19,-0.21l0.95,-0.88l0.33,-0.3l0.56,-0.44l0.36,-0.31l0.33,-0.22l0.19,-0.08l0.43,0l0.39,0.17l0,0.44l0.13,0.39l0.27,0.66l0.68,-0.13l0.43,0.13l-0.06,-0.31l0.06,-0.3l0.3,-0.27l0.19,0.35l0.53,0.05l0.52,-0.35l0.17,-0.13l0.16,-0.27l0.2,-0.21l0.29,-0.31l0.53,-0.88l0.65,-0.69l0.72,-1.05l0.4,-0.66l0.29,-0.57l0.36,-0.61l0.13,-0.26l0.27,-0.48l0.16,-0.57l0.23,-0.18l0.39,-0.04l0.1,-0.22l0.16,-0.35l0.46,-0.66l0.43,-1.18l0.43,-1l0.09,-0.22l1.12,-3.15l0.82,-2.98l0.46,-0.26l0.23,-0.27l0.32,-0.79l0.2,-0.26l0.33,-0.48l0.75,-2.01l0.14,-0.66l0.81,-2.24l0.23,-0.96l0.56,-3.86l0.13,-2.15l0.17,-2.45l-0.1,-0.92l-0.63,-2.72l-0.03,-0.84l-0.13,-0.65l-0.03,-1.3z" id="GE-AJ"/>
   <path class="land" d="m294.84,279.96l0.59,-0.37l0.42,-0.12l1.35,-0.2l0.9,-0.35l0.63,-0.09l8.01,0.07l0.61,-0.07l1.41,-0.42l2.21,-0.25l0.91,-0.35l1.77,-0.31l1.85,-0.85l0.66,-0.2l5.67,0.01l0.67,-0.12l0.76,-0.33l2.42,-0.41l1.45,0.79l1.68,0.25l0.92,0.38l1.63,0.26l0.89,0.38l1.07,0.28l0.82,0.65l2.88,2.9l0.92,0.6l1.63,0.23l0.76,0.35l0.47,0.09l5.26,0.06l1.11,0.13l0.9,0.42l0.97,0.22l1.09,0.6l0.3,0.42l0.35,0.95l0,0l-0.98,0.53l-0.74,0.54l-0.91,0.97l-0.17,0.28l-0.11,0.44l-0.06,1.48l0.16,0.47l1.26,2.5l0.58,0.58l1.12,0.56l0.45,0.13l3.21,0.06l0.81,0.13l1.39,0.71l1.11,0.84l0.61,0.2l0.49,0.05l0.64,0l0.7,-0.22l0.58,-0.86l0.38,-0.89l0.47,-0.78l0.17,-0.19l0.42,-0.17l0.98,-0.05l2.95,0.08l0.49,0.11l0.89,0.38l1.04,0.19l0.67,0.23l1.74,3.5l0.24,1.59l0.39,0.89l0.28,1.14l0.66,1.39l0.63,0.97l0.69,0.2l1.96,0l0.78,0.09l2.81,1.34l1.53,0.84l2.59,2.45l0.43,0.21l0.87,0.19l0.91,0.38l1.26,0.36l0.62,0.48l1.37,1.34l0.67,0.4l0.94,0.11l5.69,-0.04l0.84,0.06l0.62,0.21l0.48,0.47l1.13,1.7l0.2,0.65l0.04,8.48l0.18,0.98l0.36,0.91l0.14,2.12l0,0l-3.19,-0.03l-0.61,0.13l-0.57,0.35l-0.81,0.77l-0.49,0.64l-0.59,1.26l-0.18,1.44l-0.13,0.44l-0.54,0.87l-0.35,0.22l-1.23,0.19l-1.06,0.41l-0.73,0l-0.71,-0.31l-1.45,-1.28l-0.46,-0.18l-0.5,-0.06l-2.22,0l-0.65,0.14l-0.74,0.34l-0.31,0.05l-2.31,0.1l0,0l-4.09,-0.03l-0.47,-0.05l-0.42,-0.16l-0.48,-0.49l-1.46,-3.01l-0.47,-0.62l-1.73,-1.65l-0.42,-0.2l-0.79,-0.09l-2.61,-0.01l-0.47,0.05l-0.44,0.15l-1.74,1.46l-2.3,1.17l-2.84,2.72l-6.04,-0.1l-0.85,0.2l-0.76,0.32l-2.26,0.24l-0.9,0.39l-1.39,0.41l-0.54,-1.52l-0.64,-1.2l-0.59,-0.6l-2.52,-1.19l-0.48,-0.14l-0.83,-0.03l-4.1,-0.03l-0.5,0.06l-1.2,0.45l-0.99,0.22l-3.16,1.58l-0.52,0.16l-0.41,-0.07l-0.35,-0.47l-0.09,-1.23l-0.17,-0.54l-0.29,-0.25l-0.82,-0.44l-1.96,-0.32l-0.59,-0.28l-1.2,-0.35l-0.5,-0.32l-0.44,-0.54l-0.72,-1.19l-0.35,-0.38l-0.5,-0.34l-0.92,-0.2l-3.21,0.06l-0.8,-0.03l-0.45,-0.12l-0.28,-0.35l-0.09,-0.44l0.07,-3.03l-0.07,-0.73l-0.57,-0.82l-2.6,-1.24l-1.04,-0.15l-5.14,-0.03l-0.5,-0.09l-0.92,-0.39l-0.66,-0.13l-6.16,-0.05l-0.49,-0.1l-0.91,-0.38l-0.63,-0.09l-0.88,-0.07l-0.31,0.21l0,0l-0.07,-0.85l-0.19,-0.97l-0.17,-0.39l-0.23,-3.43l-0.19,-3.12l-0.46,-3.82l-0.04,-2.29l0.07,-0.83l-0.3,-0.66l-0.36,-1.58l0.04,-0.57l0.19,-0.22l0.2,-1.23l-0.13,-0.05l-0.07,0.09l-0.1,0.44l-0.09,0.09l-0.1,0.7l-0.23,0.09l-0.62,-0.97l-0.2,-0.7l-0.56,-0.18l-0.23,-0.57l-0.42,-0.62l-0.2,-0.44l-0.82,-1.89l-0.26,-1.1l-1.08,-1.89l-0.27,-0.48l-0.06,-0.44l-0.36,-0.57l-0.17,-0.45l-0.39,-0.48l0,-0.26l0.16,-0.31l0.27,0l0.23,0.04l-0.07,-0.44l0.03,-0.13l0.17,-0.13l0.16,0l0,0.44l0.33,0.83l0.1,0.31l0,0.53l0.23,0.31l0.16,0.44l0,0.22l-0.1,0.09l-0.06,0.22l-0.07,0.35l0.3,0.17l0.13,0.09l0.23,0.05l0.09,-0.22l0.37,0.08l0.09,0.27l0.1,0.26l0.1,0.22l0.13,0l0.23,-0.39l0.13,-0.14l0,-0.3l-0.19,-0.36l-0.07,-0.17l0,-0.22l0.13,-0.27l0.23,0.05l0.13,-0.13l-0.1,-0.22l-0.26,-0.05l-0.03,-0.13l0.13,-0.17l0.39,-0.23l0.13,-0.13l0,-0.13l-0.13,-0.22l-0.46,0.04l-0.19,-0.08l-0.13,-0.44l-0.13,-0.44l-0.66,-0.14l-0.13,-0.3l-0.4,-0.09l-0.09,-0.35l-0.27,0.08l-0.13,-0.3l0.2,-0.36l0.2,0l0.16,0l0.43,0.18l0.32,0.13l0.07,-0.04l0.3,-0.13l0.42,-0.18l0.89,-0.31l0.65,-0.31l0.56,0l0.33,-0.04l0.23,-0.13l0.23,-0.31l0.09,-0.27l0.07,-0.17l-0.13,-0.62l0,-0.75l0.13,-0.26l0.3,-0.09l0.23,-0.09l0.39,-0.13l0.29,-0.13l0,-0.18l-0.32,-0.26l-0.27,-0.09l-0.39,-0.09l-0.16,-0.04l-0.23,-0.18l-0.14,-0.34z" id="GE-GU"/>
   <path class="land" d="m396.27,217.67l1.28,1.52l0.28,0.75l-0.01,1.47l-0.12,0.46l-0.44,1.04l-0.08,1.78l0.17,0.94l0.9,1.23l0.19,0.6l0.03,2.93l-0.12,1.42l1.27,0.16l1.19,-0.09l0.89,-0.38l1.14,-0.29l0.75,-0.33l1.15,-0.27l1.14,-0.53l0.63,-0.53l1.07,-2.1l0.31,-0.28l0.42,-0.17l1.21,0.03l1.17,0.49l1.5,0.21l0.52,0.3l1.27,1.16l0.23,0.16l0.62,0.17l0.99,0l1.23,-0.45l1.07,-0.16l0.26,-0.11l0.22,-0.25l0.31,-1.59l0.42,-1.23l0.2,-0.36l0.49,-0.16l0.42,0.03l2.23,0.9l0.19,0.18l0.55,0.98l0.66,0.68l0.27,0.17l1.51,0.28l0.17,0.1l0.06,0.16l1.42,0.44l1.27,0.91l1.03,0.59l5.31,5.22l0.55,0.75l0.29,1.13l0.38,0.89l0.17,2.75l0.38,0.88l0.21,0.77l0.15,0.22l0.36,0.18l0.42,0.05l2.82,-0.01l0.72,0.17l2.53,1.28l1.5,1.32l1.15,0.67l1.1,1.03l0.46,0.28l0.28,0l0.24,-0.11l1.19,-1.09l0.53,-0.29l1.98,-0.15l1.03,-0.42l0.59,-0.11l1.09,0.02l0.91,0.25l1.21,-0.75l1.79,-0.26l1.39,-0.67l1.13,-0.86l0.9,-0.47l1.57,-1.45l0.64,-0.81l0.86,-1.77l0.35,-0.41l4.23,-2.13l1.02,-0.96l0.09,-0.44l0.13,-0.21l0.57,-0.25l1.82,-0.01l1.95,0.13l1.4,-0.16l1.04,-0.41l0.64,-0.11l6.03,0.01l0.81,0.14l0.75,0.35l1,0.25l1.04,0.43l1.95,0.19l1.22,0.47l1.3,0.11l0.81,-0.09l0.9,-0.39l1.14,-0.29l0.76,-0.33l1.62,-0.25l1.06,-0.43l1.15,-0.06l0.62,0.16l5.67,2.85l0.82,0.15l0,0l-0.17,0.99l0,1.67l0.37,1.31l1.49,0.56l1.31,1.68l-0.19,2.05l-2.05,0.74l0.19,1.86l0.74,1.87l2.24,1.3l1.68,0.38l2.42,0.93l2.05,0.37l1.3,1.12l0,1.83l-0.37,0.72l-0.58,0.76l-0.59,0.57l-0.65,0.47l-0.54,0.22l0,0l-1.25,0.61l0,0l-0.51,0.46l0,0l-0.15,0.24l0,0l-0.54,1.11l0,0l-0.24,1l0,0l-0.44,1.01l-0.02,0.73l0.42,1.02l0.3,1.12l0.4,0.89l0.09,0.77l-0.02,3.36l-0.13,0.6l-0.29,0.61l0,0l-0.19,0.86l-0.07,1.24l0,0l-2.41,1.17l-0.59,0.57l-0.61,1.24l-0.27,1.14l-0.35,0.73l-0.23,1.62l-0.39,0.88l-0.33,1.25l-0.64,1.25l-1.42,1.59l-0.73,1.22l-0.87,0.73l-4.33,2.06l-0.69,0.5l-0.11,1.04l-0.38,0.88l-0.13,0.79l0.02,8.55l-0.1,0.96l-0.4,0.57l-1.13,0.66l-1.98,1.77l-0.93,0.5l-0.52,0.39l-1.21,1.16l-0.61,0.76l-0.63,1.24l-0.13,0.95l0.07,1.13l0.47,1.18l0.11,1.05l0,0l-1.07,0.09l-1.03,0.41l-1.35,0.15l-0.42,0.12l-1.4,0.71l-1.74,1.63l-0.64,0.43l-1.64,0.24l-1.03,0.4l-1.35,0.15l-0.42,0.12l-1.4,0.7l-1.61,1.4l-2.54,1.23l-0.42,0.12l-1.49,0.19l-0.75,0.34l-1.15,0.27l-0.75,0.34l-1.15,0.27l-0.75,0.34l-1.01,0.22l-0.89,0.39l-1.14,0.26l-7.06,3.43l-1.58,0.68l-1.49,-0.69l-1.29,-0.73l-0.69,0.15l-1.49,0.13l-1.55,0.5l-3.98,0.05l-1.7,0.53l-3.21,0.05l-0.63,0.11l-1.07,0.39l-1.78,0.13l-0.46,0.15l-0.4,0.27l-1.32,1.31l-1.42,0.06l-1.01,-0.1l-0.27,-0.09l-3.01,-1.52l-0.44,-0.13l-0.83,-0.08l-3.12,0.03l-0.84,-0.06l-0.62,-0.16l-2.02,-0.98l-0.67,-0.1l-2.22,0l-0.7,0.15l-3.75,1.79l-0.65,0.49l-1.56,1.49l-0.42,0.25l-1.32,0.16l-1.21,-0.02l-1.01,-0.14l-2.3,-1.06l-0.75,-0.09l-1.29,0.02l-0.64,-0.47l-0.71,-1.21l-2.03,-2.08l0,0l-0.14,-2.12l-0.36,-0.91l-0.18,-0.98l-0.04,-8.48l-0.2,-0.65l-1.13,-1.7l-0.48,-0.47l-0.62,-0.21l-0.84,-0.06l-5.69,0.04l-0.94,-0.11l-0.67,-0.4l-1.37,-1.34l-0.62,-0.48l-1.26,-0.36l-0.91,-0.38l-0.87,-0.19l-0.43,-0.21l-2.59,-2.45l-1.53,-0.84l-2.81,-1.34l-0.78,-0.09l-1.96,0l-0.69,-0.2l-0.63,-0.97l-0.66,-1.39l-0.28,-1.14l-0.39,-0.89l-0.24,-1.59l-1.74,-3.5l-0.67,-0.23l-1.04,-0.19l-0.89,-0.38l-0.49,-0.11l-2.95,-0.08l-0.98,0.05l-0.42,0.17l-0.17,0.19l-0.47,0.78l-0.38,0.89l-0.58,0.86l-0.7,0.22l-0.64,0l-0.49,-0.05l-0.61,-0.2l-1.11,-0.84l-1.39,-0.71l-0.81,-0.13l-3.21,-0.06l-0.45,-0.13l-1.12,-0.56l-0.58,-0.58l-1.26,-2.5l-0.16,-0.47l0.06,-1.48l0.11,-0.44l0.17,-0.28l0.91,-0.97l0.74,-0.54l0.98,-0.53l0,0l0.9,-0.15l0.69,0.02l0.49,0.1l0.9,0.38l0.84,0.01l0.47,-0.2l0.95,-0.69l0.64,-0.35l0.36,-0.32l0.18,-0.28l0.13,-0.49l0.1,-1.53l0.45,-1.23l0.11,-1.21l-0.01,-11.22l-0.12,-0.85l-0.47,-1.18l0.09,-0.6l0.33,-0.29l1.5,-0.48l1.37,-0.2l0.34,-0.27l0.16,-0.57l0.01,-0.99l-0.09,-1.02l-0.21,-0.76l1.08,-2.02l1.03,-1.57l1.11,-1.38l1.03,-2.03l0.94,-1.21l2.93,-5.77l1.3,-1.29l1.04,-0.56l0.49,-0.38l2.2,-2.13l0.74,-0.82l0.67,-1.15l1.57,-1.59l0.38,-0.49l0.15,-0.43l0.06,-0.61l-0.04,-6.69l0.05,-0.77l0.16,-0.41l0.39,-0.39l1.89,-0.88l0.33,-0.25l0.24,-0.34l0.15,-0.79l-0.01,-3.01l0.18,-0.61l0.74,-0.79l1.17,-0.64l0.58,-0.52l0.37,-0.5l0.84,-1.76l0.26,-0.32l0.34,-0.24l0.97,-0.15l4.6,0.05l0.77,-0.21l0.98,-0.73l0.55,-0.24l1.43,-0.07l1.72,0.17z" fill="black" id="GE-IM"/>
   <path class="land" d="m871.19,441.2l-2.41,-0.06l-0.95,0.81l-1.34,-0.14l-1.88,-2.15l-2.7,-1.08l-2.82,-0.67l-2.29,1.62l-3.36,4.84l-1.62,3.1l-1.61,0.4l-2.69,-3.57l-0.54,-3.36l-2.69,-1.08l-2.56,1.35l-2.15,0l-3.22,-3.99l-2.17,-3.14l-3.76,-4.58l-3.5,-3.23l-6.87,-0.27l-4.71,0.54l-2.69,-1.34l-1.88,0l-0.61,0.72l-2.21,0.59l-0.83,3.05l-1.61,0.9l-1.9,-0.71l-1.46,-0.27l-3.04,0.17l-2.64,-0.28l-1.09,0.32l-2.33,0.38l-3.82,-0.25l-3.05,-1.72l-2.49,-2.24l-2.74,-1.46l-2,-0.93l-1.42,-0.37l-2.83,0.11l-1.74,-0.34l-2.19,-0.83l-2.41,-1.87l-2.56,-1.28l-3.32,-2.26l-3.11,-4.38l-1.24,-1.83l-0.47,-0.85l0.03,-0.53l0.35,-0.68l0.64,-0.14l0.61,-0.89l0.57,-1.29l0.74,-0.57l0.49,-0.67l0.52,-0.24l0.61,-0.13l1.82,-0.06l0.62,-0.2l0.27,-0.42l-0.16,-0.48l-1.81,-1.78l-0.72,-0.84l-0.68,-0.05l-2.48,1.54l-0.87,-0.09l-1.17,-0.4l-3.16,-1.91l-1.32,-0.32l-2.09,0.18l-2.14,0.62l-1.97,-0.77l-0.66,-0.5l-0.63,-0.75l-0.4,-2.34l-0.56,-1.3l-1.58,-0.73l-3.93,-0.96l-2.27,-0.79l-1.06,-0.64l-0.66,-0.63l-1.97,-2.36l-0.85,-0.46l-0.93,-0.13l-0.93,0l-0.54,-0.12l-1.86,2.28l-0.96,0.9l-0.7,0.45l-0.9,0.12l-0.9,-0.07l-2.96,-1.85l-2.56,-1.87l-1.78,-1.88l0,0l-0.33,-1.22l-2.21,-4.28l0.01,-0.56l0.85,-1.74l-0.05,-0.37l-0.42,-0.54l-1.87,-1.79l-0.75,-0.46l-1.01,-0.23l-1.04,-0.42l-2.93,-0.11l-1.5,-0.51l-1.53,-0.09l-0.58,-0.12l-0.35,-0.24l-0.26,-0.31l-1.24,-2.47l-0.11,-0.58l0.02,-0.75l0.11,-0.43l0.41,-0.85l0.03,-0.72l-0.11,-0.41l-1.62,-3.05l-0.09,-0.43l0.05,-0.59l0.29,-0.53l1.68,-1.67l0.78,-1.25l1.43,-1.57l0.63,-1.22l0.07,-0.4l-0.08,-0.41l-0.32,-0.72l-0.22,-1.46l-0.39,-0.88l-0.29,-1.12l-0.34,-0.73l-0.25,-1.6l-0.47,-1.17l-0.05,-3.02l-0.09,-0.77l-1.68,-3.36l-0.27,-1.13l-0.33,-0.74l-0.21,-0.76l-0.15,-0.22l-0.24,-0.14l-0.88,-0.1l-2.61,0.07l-0.45,0.11l-0.73,0.35l-0.44,0.09l-0.59,-0.05l-0.38,-0.2l-0.36,-0.41l-0.92,-1.89l-1.4,-1.58l-0.51,-0.91l-0.85,-1.09l-1.74,-3.4l-1.34,-1.38l-0.91,-0.66l0,0l0,-1.79l-0.08,-0.74l-0.82,-1.65l-0.79,-0.76l-0.92,-0.49l-1.11,-0.84l-1.58,-0.61l5.7,-5.51l0.26,-0.12l0.44,-0.04l1.38,0.63l0.82,0.66l1.73,1.73l0.7,0.54l1.28,0.6l1.64,0.25l1.01,0.4l0.55,-0.07l2,-0.96l1.99,-0.14l1.17,-0.45l1.94,-0.24l-0.35,-1.04l-0.8,-1.51l-1.93,-1.99l-1.01,-0.78l-1.14,-0.3l-1.04,-0.41l-2.32,-0.12l-1.48,-0.51l-1.98,-0.18l-1.04,-0.42l-1.65,-0.25l-0.74,-0.33l-0.78,-0.22l-0.3,-0.25l-0.25,-1.35l-0.38,-0.88l-0.1,-0.44l-0.05,-0.91l0.07,-0.76l0.24,-0.55l0.76,-0.95l0.51,-0.88l1.33,-1.44l0.13,-0.26l0.04,-0.43l-1.01,-2.08l-0.28,-1.14l-0.61,-1.25l-0.48,-0.63l-1.38,-1.34l-0.27,-0.47l0.06,-0.47l1.2,-2.39l0.08,-0.47l-0.45,-1.09l-1.58,-2.93l-0.13,-0.54l0.05,-0.28l0.22,-0.39l1.69,-1.66l0.39,-0.66l0.15,-2.58l0.42,-1.01l0.13,-0.6l0.08,-3.36l0.46,-1.17l0.21,-1.47l0.37,-0.88l0.3,-1.12l0.56,-0.76l1.99,-1.93l0.4,-0.67l0.1,-0.93l-0.04,-3.68l0.05,-0.46l0.16,-0.44l0.49,-0.61l3.36,-3.31l0.59,-1.03l0.84,-1.1l0.58,-0.95l0.48,-0.29l0.99,-0.23l0.75,-0.32l1.65,-0.22l0.9,-0.37l1.13,-0.28l0.52,-0.43l1.27,-2.47l0.17,-0.72l0,-0.61l-0.08,-0.44l-0.39,-0.89l-0.24,-1.39l-0.45,-0.91l-0.23,-0.7l-0.95,-1.86l-0.13,-0.42l-0.08,-3.53l0.09,-0.94l0.3,-0.54l0.32,-0.34l0.49,-0.37l1.05,-0.56l1.89,-1.72l1.11,-0.64l0.39,-0.57l0.11,-0.9l-0.05,-5.11l-0.12,-0.63l-0.35,-0.74l-0.26,-0.99l-0.43,-1.01l-0.01,-0.89l1.95,-3.88l0.93,-1.22l1.02,-2.03l1.45,-1.61l0.45,-0.88l0.57,-0.67l0,0l1.02,2.21l1.27,1.5l1.07,0.91l1.01,0.43l1.16,0.15l1.29,-0.3l1.33,-0.54l2.43,-0.7l0.82,-0.41l0.77,-0.16l2.97,-0.2l2.95,0.34l3.69,0.12l3,-0.16l3.15,-1.33l2.01,-0.05l1.53,0.27l0.9,0.43l1.66,1.77l1.24,1.1l3.3,1.9l3.57,1.47l5.72,3.45l0.44,0.12l3.4,-0.29l1.21,0.05l1.1,0.76l0.84,1.09l0.5,1.33l0.35,1.55l-0.06,1.68l-0.2,1.49l-0.78,1.54l-4.13,6.5l-0.4,1.15l-0.19,1.02l0.56,3.04l-0.05,1.42l-0.73,2.09l0.35,0.48l1.45,1.26l0.45,0.59l0.19,1.76l-0.42,0.64l-0.79,0.63l-2.51,1.08l-1.32,0.25l-0.77,0.3l-1.46,-0.01l-1.26,0.61l-0.8,-0.03l-0.67,-0.68l-0.71,-0.38l-0.91,-0.11l-0.7,0.23l-0.39,0.76l-1.62,5.22l-1.2,3.24l-0.87,1.97l0.27,0.7l0.49,0.49l0.87,0.21l0.61,0.27l2.03,2.18l2.7,0.85l3.05,2.03l1.01,0.43l0.77,0.68l2.56,1.65l1.48,1.29l0.53,1.61l0.68,0.17l0.78,0.54l0.88,0.9l0.48,0.78l1.78,0.97l1.3,0.22l0.95,0.8l0.72,0.32l1.12,0.14l2.23,-0.53l1.52,0.09l2.62,0.92l1.38,0.78l2.64,2.27l0.15,1.02l-0.03,1.82l0.17,1.27l0.47,1.11l1.35,1.61l0.3,1.75l0.49,0.49l1.06,0.69l0.79,0.17l0.85,-0.54l2.14,-1.85l0.77,-0.11l1,0.39l1.22,0.3l0.89,-0.54l1.17,-0.29l0.5,0.2l0.34,0.67l0.23,1.46l0.2,0.51l0.57,0.24l0.73,-0.11l0.67,-0.34l0.71,-0.66l1.37,-1.77l0.9,0.33l0.63,0.6l0.26,2.55l0.28,1.1l0.57,1.18l1.18,1.32l1.32,0.74l0.66,-0.2l0.27,-0.53l0.28,-2.56l0.54,-0.85l0.48,-0.2l0.61,0.2l0.67,0.43l3.79,4.1l1.33,0.23l1.78,-0.07l1.35,-0.38l2.72,-1.82l1.14,-0.24l0.64,0.17l0.52,0.57l0.43,1.17l1.16,1.57l3.6,3.34l0.7,1.33l1.04,0.3l0.45,0.45l0.2,0.48l-0.14,0.75l0.06,0.29l1.88,0.15l0.48,-0.41l0.25,-0.71l0.13,-1.38l0.43,-0.63l0.65,-0.05l0.57,0.28l0.78,1.16l0.67,0.39l0.56,-0.38l1.16,-1.65l0.52,-0.34l0.54,0.02l0.24,0.37l0.23,1.5l-0.14,1.51l0.41,2.16l0.33,0.81l3.18,1.94l-0.41,4.4l-0.59,1.93l-1.27,2.58l-0.69,0.95l-1.93,1.98l-1.84,0.94l-2.57,1.73l-5.14,4.63l-5.92,1.23l-5.26,1.92l-3.11,4.06l1.68,8.62l1.67,5.02l0.24,7.42l2.15,2.63l3.35,-3.35l2.05,0.3l-0.07,0.23l3.48,1.51l0.92,1.83l-0.51,1.34l0.28,1.7l0.82,1.77l1.37,1.72l0.31,0.54l1.56,2.17l0.26,1.38l-0.31,2.25l0.51,0.91l1.14,0.99l3.99,1.47l3.04,1.34l0.19,0.66l0.05,1.44l0.31,0.23l2.65,0.14l0.74,0.39l1.07,1.09l0.96,1.8l0.9,0.73l2.27,1.57l1.73,0.57l6.81,2.67l0.12,0.09l0.17,0.64l0.88,0.35l2.66,0.79l0.15,0.41l0.48,0.34l0.09,-0.4l0.34,-0.65l0.4,0.02l0.4,0.49l-0.1,0.57l-0.26,0.64l0.07,0.65l0.65,0.01l0.49,-0.39l0.32,0.41l0.22,0.58l0.57,0.17l0.43,-1.12l0.64,0.34l0.39,0.74l-0.6,1.28l-0.58,0.23l-0.56,0.07l-0.34,0.47l-0.09,0.41l0.88,0.18l0.57,0.02l0.63,0.66l0.34,-0.32l0.25,-0.56l-0.06,-0.65l0.1,-0.8l0.17,-0.32l0.56,0.17l0.3,0.9l-0.03,1.46l-0.42,0.64l0.32,0.17l0.65,-0.15l0.32,0.25l0.06,0.65l-0.18,0.73l0.07,0.4l0.81,0.18l1.22,-0.37l0.56,0.18l0.15,0.41l-0.41,0.39l0.14,0.65l0.31,0.58l-0.27,0.96l0.47,0.82l0.79,0.75l0.15,0.49l-0.26,0.64l0.32,0.13l2.77,0.23l0.64,0.85l0.04,0.69l-0.57,0.61l-1.13,0.6l-1.2,1.73l-0.67,0.65l-0.11,3.19l-2.07,2.09l-0.44,1.16l-0.83,0.93l-1.24,1.88l0.26,1.55l0.66,1.06l0.35,0.88l-0.43,0.4l0,1.83l-0.77,0.41l-0.39,1.22l0.23,4.68l-0.84,1.32l-0.08,1.12l-0.54,0.72z" fill="black" id="GE-KA"/>
   <path class="land" d="m665.11,337.32l0.38,-0.12l0.59,-0.43l1.71,-1.63l0.58,-0.7l0.19,-0.72l0.01,-2.3l0.17,-0.87l0.65,-1.24l0.87,-1.07l0.41,-0.77l0.83,-1.1l0.38,-0.74l0.4,-0.36l0.41,-0.1l0.41,0.08l0.73,0.33l1,0.26l2.16,1.04l0.79,0.09l3.09,0.07l2.11,0.92l0.39,-0.06l1.07,-0.76l1.21,-0.51l0,0l0.91,0.66l1.34,1.38l1.74,3.4l0.85,1.09l0.51,0.91l1.4,1.58l0.92,1.89l0.36,0.41l0.38,0.2l0.59,0.05l0.44,-0.09l0.73,-0.35l0.45,-0.11l2.61,-0.07l0.88,0.1l0.24,0.14l0.15,0.22l0.21,0.76l0.33,0.74l0.27,1.13l1.68,3.36l0.09,0.77l0.05,3.02l0.47,1.17l0.25,1.6l0.34,0.73l0.29,1.12l0.39,0.88l0.22,1.46l0.32,0.72l0.08,0.41l-0.07,0.4l-0.63,1.22l-1.43,1.57l-0.78,1.25l-1.68,1.67l-0.29,0.53l-0.05,0.59l0.09,0.43l1.62,3.05l0.11,0.41l-0.03,0.72l-0.41,0.85l-0.11,0.43l-0.02,0.75l0.11,0.58l1.24,2.47l0.26,0.31l0.35,0.24l0.58,0.12l1.53,0.09l1.5,0.51l2.93,0.11l1.04,0.42l1.01,0.23l0.75,0.46l1.87,1.79l0.42,0.54l0.05,0.37l-0.85,1.74l-0.01,0.56l2.21,4.28l0.33,1.22l0,0l-1.51,-0.83l-1.22,-0.22l-0.87,0.26l-1.25,0.94l-0.89,-0.06l-0.91,0.26l-1.54,0.02l-0.78,0.88l-0.98,2.85l-0.98,0.44l-1.65,1.17l-0.86,1.02l-1.14,1.01l-3.28,0.66l-0.77,0.45l-1.71,2.1l-1.54,1.32l-1.57,2.54l-2.21,3.24l-1.11,1.26l-1.42,0.86l-1.62,0.46l-0.98,0.37l-2.67,1.98l-2.57,1.08l-1.7,0.56l-0.74,0.45l-0.98,-0.06l-0.91,0.44l-3.66,3.24l-0.41,0.6l-0.22,1.32l-0.67,1.16l-1.11,0.12l-1.25,-0.06l-2.67,-0.71l-0.54,-0.02l-0.93,0.3l-0.54,0.03l-0.81,-0.56l-1.54,-1.36l-0.5,-0.12l-0.61,0.02l-0.86,-0.13l-2.09,-0.94l-1.5,-2.83l-0.39,-0.4l-0.47,0.06l-0.36,0.21l-0.68,1.77l-0.17,0.75l0.49,0.62l0.13,0.54l-0.91,0.8l-0.23,2.07l2.07,3.52l0.84,0.42l2.24,0.58l1.73,0.98l0.74,0.48l0.49,0.58l-0.16,0.68l-2.29,0.19l-1.18,-0.13l-2.86,-1.39l-1.11,-0.28l-0.86,0.09l-0.9,0.48l-0.96,-0.38l-2.31,0.77l-1.64,0l-0.93,0.16l-1.1,0.94l-1.29,0.37l-0.64,-0.34l-0.11,-1.32l-0.35,-0.37l-0.53,-0.22l-1.11,0.04l-1.19,0.41l-0.68,-0.05l-0.68,-0.2l-0.66,-0.83l-0.34,-0.9l-0.6,-0.3l-3.58,0.07l-1.28,-0.39l-0.78,-0.12l-0.36,0.24l-0.9,2.02l-0.36,1.75l-0.26,2.03l-0.15,0.57l-0.44,0.56l-0.4,0.25l-0.83,0.3l0.01,-2.18l-0.38,-0.65l-0.57,0.06l-1.84,0.57l-2.64,1.38l-0.43,0.06l-0.74,-0.26l-2.67,-0.56l-0.79,0.06l-1.55,0.44l-2.34,1.17l-0.86,0.13l-0.79,-0.02l-1.42,-0.53l-3.53,-2.38l-2.21,-2.08l-4.07,-2.51l-0.68,-0.22l-0.57,0.06l-0.69,0.38l-0.37,0.68l-0.16,1.46l0.02,0.54l-0.3,0.71l-0.47,0.27l-0.78,-0.19l-2.31,-1l-2.28,-0.22l-2.4,0.32l-1.32,-0.31l-0.39,-0.33l-0.46,-2.54l-0.59,-0.8l-0.74,-0.55l-0.4,-0.15l-1.34,1.45l-0.5,0.1l-0.97,-0.02l-0.82,-0.22l-1.44,-1.32l-0.68,0.03l-0.48,0.53l-0.19,0.5l0.1,0.71l0.76,1.59l0.14,0.58l-1.3,3.09l-0.58,0.56l-0.8,0.52l-1.51,0.45l-1.11,0.09l-4.89,-0.18l-2.28,-0.22l-1,0.06l-1.11,0.23l-1.91,1.01l-1.22,0.38l-1.14,0.13l-1.47,0.51l-1.16,0.85l-1.92,2.26l-0.25,0.04l0,0l-0.77,-3.02l-0.18,-1.02l-0.38,-0.86l-0.11,-0.45l-0.02,-4.05l-0.14,-0.93l-0.7,-1.37l-1.41,-1.55l-0.51,-0.9l-0.83,-1.09l-0.38,-1.23l-0.42,-1.03l-0.07,-1.52l0.16,-1.16l0.33,-0.73l0.37,-1.25l0.65,-1.22l0.81,-1.05l0.18,-0.46l0.07,-1.01l-0.08,-3.78l-0.45,-1.21l-0.26,-1.58l-0.57,-1.26l-0.55,-0.88l-0.32,-0.26l-0.29,-0.09l-2.08,-0.1l-0.26,-0.15l-0.21,-0.39l-0.02,-8.39l-0.14,-0.81l-0.38,-0.9l-0.11,-1l0.04,-1.04l0.26,-0.91l-1.64,-0.73l-1.12,-0.82l-0.75,-0.39l-0.45,-0.52l-0.14,-0.63l0.03,-0.64l0.12,-0.47l0.42,-0.87l0.1,-0.63l-0.01,-0.49l-0.2,-0.59l-0.62,-0.53l-4.67,-2.29l-0.7,-0.19l-0.74,0.07l-0.74,0.33l-1.14,0.3l-2.16,0.99l-1.96,0.15l-1.53,0.5l-9.55,-0.02l-0.07,-2.09l0.17,-0.94l0.45,-0.5l1.87,-0.87l0.42,-0.36l0.26,-0.53l0.19,-1.41l0.4,-1.05l0.09,-1.03l-0.02,-4.52l-0.09,-0.67l-0.45,-1.03l-0.08,-0.98l0.13,-0.63l0.38,-0.88l0.23,-1.42l0.37,-0.89l0.1,-0.46l0.07,-5.79l0.15,-0.56l0.63,-1.61l0.88,-0.56l0.39,-0.15l1.56,-0.08l1.08,0.09l1.18,0.46l1.64,0.26l0.75,0.34l1.14,0.29l0.89,0.39l1.5,0.22l1,0.39l0.43,-0.03l0.27,-0.13l0.59,-0.48l4.81,-4.72l0.5,-0.6l0.46,-0.87l0.89,-1.09l0,0l4.54,0.05l0.88,0.07l0.48,0.15l1.85,0.91l0.68,0.13l9.92,0.09l0.68,0.13l1.07,0.41l3.49,0.12l0.5,0.11l0.91,0.38l1.41,0.13l1.43,-0.02l0.68,-0.12l3.76,-1.77l2.41,0.08l0.92,0.18l1.15,0.56l0.79,0.53l1.92,0.03l1.47,0.54l1.23,0.08l1.03,-0.19l5.55,-2.7l1.4,-0.37l1.28,-0.62l1.22,-0.94l0.85,-0.38l0.37,-0.08l0.53,0.24l0.68,0.65l0.5,0.64l0.48,0.91l1.07,1.18l0.82,0.75l0.56,0.28l0.97,0.11l8.4,0.05l0.97,-0.09l0.39,-0.2l0.37,-0.4l0.33,-0.62l0.61,-0.81l0.13,-0.37l-0.03,-0.24l-0.66,-1.74l0,0l1.89,0.2l1.03,0.42l0.46,0.1l2.44,0.14l0.9,0.39l1.15,0.29l0.75,0.34l1.15,0.27l0.95,0.51l0.29,0.26l0.55,0.9l1.7,3.39l1.1,1.16l1.34,1.2l0.97,-0.07l0.84,0.04l0.48,0.11l0.9,0.39l0.64,0.11l0.82,0.02l0.64,-0.1l0.59,-0.39l0.66,-1.08l1.02,-1.38l0.53,-0.53l0,0l0.76,0.14l1.06,0.32l0.79,0.45l0.27,0.24l0.09,0.24l-0.05,0.37l-0.94,2.29l0.03,0.37l0.31,0.27l0.58,0.08l4.62,-0.01l0.6,0.12l1.03,0.42l1.98,0.16l0.77,0.47l2.25,2.18l1.05,0.6l1.25,0.89l0.79,0.15l3.03,0l0.98,0.1l6.1,2.97l0.81,0.1l0.99,-0.04l1.52,-0.52l2.12,-0.07l0.76,-0.16l2.54,-1.2l0.91,-0.54l0.26,-0.28l0.55,-0.9l0.59,-1.25l0.24,-1.61l0.42,-1.01l0.24,-1.46l0.37,-0.78l-0.02,-0.37l-0.3,-0.27l-0.57,-0.08l-1.46,0.03l-0.75,0.21l-0.47,0.48l-0.84,1.75l-0.55,0.72l-1.02,0.91l-0.42,0.19l-0.47,0.08l-2.13,-0.01l-0.94,-0.14l-2.53,-1.24l-1.13,-0.83l-0.99,-0.56l-0.34,-0.43l-0.12,-0.44l0,-2.23l-0.09,-0.78l-1.28,-2.64l-0.37,-0.49l-0.58,-0.52l-1.84,-0.95l-0.17,-0.21l-0.1,-0.39l0.09,-0.56l0.36,-0.5l0.59,-0.5l0.93,-0.46l0.74,-0.58l1.36,-1.35l0.7,-1.06z" id="GE-KK"/>
   <path class="land" d="m683.2,189.81l4.42,0.63l2.44,-0.71l3.17,-0.72l3.03,0.3l1.3,0.62l1.11,1.13l1.19,1.94l2.39,2.37l2.85,3.93l2.93,3.71l1,1.01l2.93,2.35l0.8,1.23l0.66,3.68l0.19,0.42l0,0l-0.57,0.67l-0.45,0.88l-1.45,1.61l-1.02,2.03l-0.93,1.22l-1.95,3.88l0.01,0.89l0.43,1.01l0.26,0.99l0.35,0.74l0.12,0.63l0.05,5.11l-0.11,0.9l-0.39,0.57l-1.11,0.64l-1.89,1.72l-1.05,0.56l-0.49,0.37l-0.32,0.34l-0.3,0.54l-0.09,0.94l0.08,3.53l0.13,0.42l0.95,1.86l0.23,0.7l0.45,0.91l0.24,1.39l0.39,0.89l0.08,0.44l0,0.61l-0.17,0.72l-1.27,2.47l-0.52,0.43l-1.13,0.28l-0.9,0.37l-1.65,0.22l-0.75,0.32l-0.99,0.23l-0.48,0.29l-0.58,0.95l-0.84,1.1l-0.59,1.03l-3.36,3.31l-0.49,0.61l-0.16,0.44l-0.05,0.46l0.04,3.68l-0.1,0.93l-0.4,0.67l-1.99,1.93l-0.56,0.76l-0.3,1.12l-0.37,0.88l-0.21,1.47l-0.46,1.17l-0.08,3.36l-0.13,0.6l-0.42,1.01l-0.15,2.58l-0.39,0.66l-1.69,1.66l-0.22,0.39l-0.05,0.28l0.13,0.54l1.58,2.93l0.45,1.09l-0.08,0.47l-1.2,2.39l-0.06,0.47l0.27,0.47l1.38,1.34l0.48,0.63l0.61,1.25l0.28,1.14l1.01,2.08l-0.04,0.43l-0.13,0.26l-1.33,1.44l-0.51,0.88l-0.76,0.95l-0.24,0.55l-0.07,0.76l0.05,0.91l0.1,0.44l0.38,0.88l0.25,1.35l0.3,0.25l0.78,0.22l0.74,0.33l1.65,0.25l1.04,0.42l1.98,0.18l1.48,0.51l2.32,0.12l1.04,0.41l1.14,0.3l1.01,0.78l1.93,1.99l0.8,1.51l0.35,1.04l-1.94,0.24l-1.17,0.45l-1.99,0.14l-2,0.96l-0.55,0.07l-1.01,-0.4l-1.64,-0.25l-1.28,-0.6l-0.7,-0.54l-1.73,-1.73l-0.82,-0.66l-1.38,-0.63l-0.44,0.04l-0.26,0.12l-5.7,5.51l1.58,0.61l1.11,0.84l0.92,0.49l0.79,0.76l0.82,1.65l0.08,0.74l0,1.79l0,0l-1.21,0.51l-1.07,0.76l-0.39,0.06l-2.11,-0.92l-3.09,-0.07l-0.79,-0.09l-2.16,-1.04l-1,-0.26l-0.73,-0.33l-0.41,-0.08l-0.41,0.1l-0.4,0.36l-0.38,0.74l-0.83,1.1l-0.41,0.77l-0.87,1.07l-0.65,1.24l-0.17,0.87l-0.01,2.3l-0.19,0.72l-0.58,0.7l-1.71,1.63l-0.59,0.43l-0.38,0.12l0,0l-1.16,-0.43l-1.37,-0.15l-0.42,-0.12l-1.39,-0.71l-1.78,-1.69l-0.59,-0.44l-1.28,-0.61l-1.01,-0.25l-0.82,-0.37l-0.38,0.01l-0.29,0.23l-0.52,0.89l-0.58,1.26l-0.26,1.13l-0.69,1.35l-0.39,0.38l-0.87,0.46l-1.01,0.78l-0.99,0.45l-0.35,0.08l-0.36,-0.1l-1.59,-0.78l-0.74,-0.11l-0.57,0.12l-0.91,0.53l-0.22,0.36l-0.06,0.61l0.1,0.63l0.42,0.87l0.12,0.47l0.02,0.62l-0.12,0.43l-0.27,0.3l-0.69,0.38l-1.41,0.35l-1.16,0.61l-0.7,0.76l-0.67,1.82l0,0l-0.53,0.53l-1.02,1.38l-0.66,1.08l-0.59,0.39l-0.64,0.1l-0.82,-0.02l-0.64,-0.11l-0.9,-0.39l-0.48,-0.11l-0.84,-0.04l-0.97,0.07l-1.34,-1.2l-1.1,-1.16l-1.7,-3.39l-0.55,-0.9l-0.29,-0.26l-0.95,-0.51l-1.15,-0.27l-0.75,-0.34l-1.15,-0.29l-0.9,-0.39l-2.44,-0.14l-0.46,-0.1l-1.03,-0.42l-1.89,-0.2l0,0l-0.22,-0.33l-0.2,-1.19l-0.45,-1.04l-0.08,-0.63l0.03,-0.47l0.27,-0.49l2.49,-1.29l0.2,-0.17l0.17,-0.39l0.06,-0.76l-0.06,-2.96l-0.12,-0.62l-0.43,-1.03l-0.08,-1.44l0.1,-1.12l0.66,-1.74l0.34,-0.25l0.44,-0.08l3.6,0.05l1,0.12l1.01,0.44l0.42,0.04l0.52,-0.15l0.65,-0.95l0.64,-1.38l0.13,-0.64l0.02,-2.18l-0.06,-0.49l-0.17,-0.46l-1.38,-1.58l-0.51,-0.9l-0.41,-0.51l-2.87,-2.83l-0.83,-1l-1.83,-3.61l-0.13,-0.44l-0.06,-0.65l0.02,-5.66l-0.14,-0.73l-0.33,-0.51l-0.42,-0.44l-3.09,-2.93l0,0l0.96,-1.86l0.28,-0.29l0.38,-0.17l0.29,0l0.86,0.4l0,0l0.52,0.24l1.24,0.97l0,0l0.76,0.41l0.96,0.71l0.38,0.04l0,0l0.23,-0.09l0,0l0.86,-0.63l0.75,-0.38l0.45,-0.52l0.15,-0.73l-0.01,-0.45l-0.21,-0.72l-0.35,-0.44l0,0l-0.92,-0.95l0,0l-0.31,-0.46l-0.3,-1.12l-0.36,-0.74l-0.12,-0.58l0.01,-0.75l0.26,-0.71l0.42,-0.46l0.5,-0.37l1.05,-0.55l0,0l0.46,-0.42l0.44,-0.62l0,0l0.53,-1.13l0.32,-1.26l0.56,-1.11l0.36,-0.41l0.98,-0.55l1.4,-1.19l1,-0.57l0.39,-0.38l2,-3.97l0.1,-0.96l0.01,-12.03l-0.07,-0.8l0,0l-0.16,-0.44l0,0l-0.84,-1.1l-0.5,-0.89l-1.33,-1.49l-0.5,-0.9l-0.85,-1.1l-1.32,-2.61l-0.04,-0.29l0.08,-0.41l1.53,-2.93l0.2,-1.07l0.03,-1.46l-0.1,-0.88l-0.15,-0.24l-0.22,-0.14l-0.77,-0.22l0,0l-0.75,-0.32l0,0l-1.2,-0.16l0,0l-0.3,-0.04l0,0l-0.69,-0.32l-1.98,-1.86l-1.52,-0.82l0,0l-0.54,-0.22l0,0l-0.74,-0.37l-1.28,-0.34l-2.55,-1.25l-0.6,-0.5l-0.53,-0.76l0,0l-0.34,-0.9l0,0l-0.13,-0.41l-0.48,-0.2l-0.93,-0.63l-0.77,-0.39l-1.61,-1.42l0,0l-0.26,-0.17l0,0l-1.26,-0.62l-1.38,-0.14l0,0l-2.68,0.01l0,0l-0.91,-0.14l-2.66,-1.32l-1.81,-1.67l-0.3,-0.37l-0.27,-0.52l-0.13,-1.35l0.03,-0.66l0.15,-0.58l0.32,-0.27l2.17,-0.65l0.35,-0.19l0,0l0.08,-0.11l0,0l0.11,-0.39l-0.04,-0.41l0,0l-0.09,-0.27l0,0l-0.76,-1.47l0,0l-0.44,-0.65l0,0l-0.52,-0.26l0,0l-1.01,-0.12l-0.72,-1.11l0,0l-0.33,-1.26l-0.66,-1.15l-1.03,-0.61l-1.13,-0.28l-0.37,-0.2l0,0l-0.29,-0.29l0,0l-0.49,-0.87l-0.77,-0.98l-0.64,-1.27l-0.15,-0.6l0,0l-0.02,-0.32l0,0l-0.01,-1.58l-0.12,-0.41l-0.19,-0.2l-1.94,-0.69l-3.08,-0.11l0,0l-0.31,-0.09l0,0l-0.78,-0.57l-1.98,-2.03l-0.34,-0.48l-0.87,-1.78l0,0l-0.26,-0.49l0,0l-0.21,-0.69l0,0l-0.09,-0.9l0,0l-0.53,-1.55l2.5,-0.56l0.97,-0.65l0.48,-0.46l1.01,-3.58l1.13,-2.1l1.13,-1.85l0.9,-1.27l2.63,-1.83l2.44,-1.09l2.76,-1.02l2.5,-0.43l1.76,0.03l3.88,0.54l1.53,0.07l0.96,-0.28l1.33,-0.6l1.3,-0.78l2.49,-2.04l2.08,-1.36l2.04,-0.91l1.76,-0.37l2.02,0.07l9.36,1.18l3.09,-0.31l1.95,-0.5l1.99,-0.22l2.95,0.69l1.2,0.57l1.12,0.69l0.71,0.93l0.93,0.9l0.79,0.97l2.25,12.25l0.77,1.7l0.64,0.56l1.12,0.69l1.13,0.13l0.7,-0.09l1.74,-1.03l2.33,-5.62l1.67,-5.56l2.25,-3.73l1.06,-1.48l1.06,-1.18l1.08,-0.86l1.59,-0.47l1.69,-0.33l2.54,-0.12l3.24,0.67l1.9,0.63l2.91,2.35l4.64,4.59l1.23,0.43z" id="GE-MM"/>
   <path class="land" d="m483.91,159.19l0.35,0.02l1.51,-0.4l1.21,-0.51l2.35,-0.13l3.05,0.24l4.3,0.57l2.85,1.24l0.95,0.92l1.06,0.74l1.32,0.38l3.09,0.21l0.99,0.15l1.13,0.34l1.9,1.08l2.41,1.97l0.76,0.74l0.44,0.88l0.46,1.66l0.51,0.74l0.94,0.74l0.95,0.93l1.45,1.88l0.58,0.26l0.66,0.15l1.77,-0.49l1.13,0.23l1.06,0.41l1.24,1l1.05,1.48l1.67,1.23l5.1,2.07l0.36,1.43l0,0l0.19,2.8l0,3.35l-1.12,3.36l0,0l-2.42,0.93l-4.29,0.18l-0.19,2.8l-2.05,1.3l-2.42,0.75l-2.24,1.12l0,0l-3.17,0.37l0,0l-0.74,1.86l-1.49,2.05l-0.93,2.05l-2.43,0.38l0,0l-2.61,2.42l0,0l-0.18,2.42l1.49,1.49l-0.19,1.87l0,0l0.19,2.23l0,0l1.49,1.31l0.37,2.61l0,0l-0.37,2.61l0,0l-0.75,3.72l-1.49,3.92l0.75,3.54l0,2.61l-0.39,2.18l0,0l-0.82,-0.15l-5.67,-2.85l-0.62,-0.16l-1.15,0.06l-1.06,0.43l-1.62,0.25l-0.76,0.33l-1.14,0.29l-0.9,0.39l-0.81,0.09l-1.3,-0.11l-1.22,-0.47l-1.95,-0.19l-1.04,-0.43l-1,-0.25l-0.75,-0.35l-0.81,-0.14l-6.03,-0.01l-0.64,0.11l-1.04,0.41l-1.4,0.16l-1.95,-0.13l-1.82,0.01l-0.57,0.25l-0.13,0.21l-0.09,0.44l-1.02,0.96l-4.23,2.13l-0.35,0.41l-0.86,1.77l-0.64,0.81l-1.57,1.45l-0.9,0.47l-1.13,0.86l-1.39,0.67l-1.79,0.26l-1.21,0.75l-0.91,-0.25l-1.09,-0.02l-0.59,0.11l-1.03,0.42l-1.98,0.15l-0.53,0.29l-1.19,1.09l-0.24,0.11l-0.28,0l-0.46,-0.28l-1.1,-1.03l-1.15,-0.67l-1.5,-1.32l-2.53,-1.28l-0.72,-0.17l-2.82,0.01l-0.42,-0.05l-0.36,-0.18l-0.15,-0.22l-0.21,-0.77l-0.38,-0.88l-0.17,-2.75l-0.38,-0.89l-0.29,-1.13l-0.55,-0.75l-5.31,-5.22l-1.03,-0.59l-1.27,-0.91l-1.42,-0.44l-0.06,-0.16l-0.17,-0.1l-1.51,-0.28l-0.27,-0.17l-0.66,-0.68l-0.55,-0.98l-0.19,-0.18l-2.23,-0.9l-0.42,-0.03l-0.49,0.16l-0.2,0.36l-0.42,1.23l-0.31,1.59l-0.22,0.25l-0.26,0.11l-1.07,0.16l-1.23,0.45l-0.99,0l-0.62,-0.17l-0.23,-0.16l-1.27,-1.16l-0.52,-0.3l-1.5,-0.21l-1.17,-0.49l-1.21,-0.03l-0.42,0.17l-0.31,0.28l-1.07,2.1l-0.63,0.53l-1.14,0.53l-1.15,0.27l-0.75,0.33l-1.14,0.29l-0.89,0.38l-1.19,0.09l-1.27,-0.16l0.12,-1.42l-0.03,-2.93l-0.19,-0.6l-0.9,-1.23l-0.17,-0.94l0.08,-1.78l0.44,-1.04l0.12,-0.46l0.01,-1.47l-0.28,-0.75l-1.28,-1.52l0,0l-0.82,-1.45l-0.28,-1.77l-1.25,-2.52l-0.94,-1.23l-1.03,-2.05l-0.86,-1.1l-0.41,-0.79l-0.86,-1.1l-0.4,-0.78l-1.52,-1.74l-0.74,-1.53l-0.09,-0.94l-0.01,-4.02l0.15,-1.08l0.34,-0.52l0.46,-0.43l1.15,-0.62l1.26,-0.9l-1.09,-1.05l-0.63,-1.12l-1.32,-1.5l-0.55,-1.02l-0.81,-0.81l-3.31,-1.65l-1.24,-0.96l-1.26,-0.64l-1.28,-0.34l-0.9,-0.39l-1.64,-0.24l-1.73,-1.02l-2.56,-2.38l-0.89,-0.47l-1.13,-0.88l-2.28,-1.16l-0.69,-0.74l-0.7,-1.23l-1.05,-0.95l0.74,-1.21l2.67,-5.42l0.33,-0.45l0.34,-0.24l0.64,-0.13l4.46,0l0.48,-0.1l0.9,-0.37l1.78,-0.12l0.59,-0.19l0.4,-0.36l1.29,-2l0.26,-1.62l0.36,-0.91l0.15,-1.08l0.22,-0.53l0.24,-0.15l0.6,-0.1l2.52,0.06l0.81,0.14l4.69,2.33l0.98,0.1l4.49,0.04l0.59,0.12l1.04,0.42l1.98,0.18l1.42,0.65l3.13,1.62l0.74,0.18l4.21,0.04l0.76,0.15l0.88,0.39l0.89,0.02l2.8,-1.36l1.74,-1.5l0.78,-0.41l0.96,-0.75l0.56,-0.17l0.53,0.13l3,1.54l1.14,0.29l0.9,0.38l1.64,0.25l1.27,0.61l0.73,0.57l1.98,2l0.4,0.29l0.44,0.15l0.74,-0.03l0.88,-0.37l0.49,-0.11l2.23,-0.11l1.56,-0.51l6.16,-0.02l0.67,-0.09l1.22,-0.48l0.95,-0.02l0.51,0.26l0.54,0.91l0.11,0.43l0.12,1.36l0.53,1.08l0.43,0.31l0.69,0.01l0.88,-0.39l1,-0.25l0.42,-0.2l0.98,-0.87l0.57,-0.78l0.14,-1.06l-0.05,-6.02l0.05,-0.47l0.2,-0.4l0.22,-0.14l2.54,-0.86l0.64,-0.99l0.37,-1.4l0.55,-1.15l0.37,-0.5l0.7,-0.6l1.02,-0.55l1.82,-1.72l1.23,-0.69l1.08,-1l0.68,0.51l0.94,0.48l0,0l0.45,0.39l1.44,0.41l6.79,1.6l6.93,3.27l1.06,1.11l1.61,0.74l1.64,0.07z" fill="black" id="GE-RL"/>
   <path class="land" d="m492.08,314.14l1.06,-0.11l1.21,-0.46l0.66,-0.04l0.66,0.08l2.31,1.09l2.27,0.11l0.63,0.14l0.53,0.35l1.08,0.98l0.41,0.25l0.47,0.12l1.3,0.07l0.64,0.11l2.53,1.21l0.41,0.36l0.25,0.54l0.01,2.5l0.14,0.8l0.25,0.4l0.43,0.44l1.43,0.83l0.73,0.8l0.15,0.45l0.16,1.28l0.35,0.91l0.18,1.2l0.19,0.38l0.39,0.2l0.45,0.05l5.99,-0.01l-0.07,1.14l0.06,0.99l0.43,1.21l0.16,1.04l0.1,0.26l0.2,0.2l0.51,0.14l2.14,0.09l1.41,0.64l0.64,0.48l2.22,2.16l0.71,0.34l2.92,0.07l0.8,-0.06l0.43,-0.13l2.09,-1.05l4.66,0.02l1.34,0.15l0.89,0.38l1,0.26l0.76,0.33l1.14,0.29l1.44,0.65l0.86,0.54l0.17,0.22l0.15,0.75l-0.14,2.64l0,0l-0.89,1.09l-0.46,0.87l-0.5,0.6l-4.81,4.72l-0.59,0.48l-0.27,0.13l-0.43,0.03l-1,-0.39l-1.5,-0.22l-0.89,-0.39l-1.14,-0.29l-0.75,-0.34l-1.64,-0.26l-1.18,-0.46l-1.08,-0.09l-1.56,0.08l-0.39,0.15l-0.88,0.56l-0.63,1.61l-0.15,0.56l-0.07,5.79l-0.1,0.46l-0.37,0.89l-0.23,1.42l-0.38,0.88l-0.13,0.63l0.08,0.98l0.45,1.03l0.09,0.67l0.02,4.52l-0.09,1.03l-0.4,1.05l-0.19,1.41l-0.26,0.53l-0.42,0.36l-1.87,0.87l-0.45,0.5l-0.17,0.94l0.07,2.09l9.55,0.02l1.53,-0.5l1.96,-0.15l2.16,-0.99l1.14,-0.3l0.74,-0.33l0.74,-0.07l0.7,0.19l4.67,2.29l0.62,0.53l0.2,0.59l0.01,0.49l-0.1,0.63l-0.42,0.87l-0.12,0.47l-0.03,0.64l0.14,0.63l0.45,0.52l0.75,0.39l1.12,0.82l1.64,0.73l-0.26,0.91l-0.04,1.04l0.11,1l0.38,0.9l0.14,0.81l0.02,8.39l0.21,0.39l0.26,0.15l2.08,0.1l0.29,0.09l0.32,0.26l0.55,0.88l0.57,1.26l0.26,1.58l0.45,1.21l0.08,3.78l-0.07,1.01l-0.18,0.46l-0.81,1.05l-0.65,1.22l-0.37,1.25l-0.33,0.73l-0.16,1.16l0.07,1.52l0.42,1.03l0.38,1.23l0.83,1.09l0.51,0.9l1.41,1.55l0.7,1.37l0.14,0.93l0.02,4.05l0.11,0.45l0.38,0.86l0.18,1.02l0.77,3.02l0,0l-0.43,0.06l-1.28,-0.23l-2.27,-1.21l-5.51,0.11l-1.57,0.13l-3.89,-0.37l-1.04,0.13l-2.55,1.12l-3.99,2.74l-1.43,0.56l-0.83,0.67l-0.55,0.85l-1.73,2.16l-0.68,0.31l-1.78,-0.34l-1.57,-0.83l-1.2,-0.44l-1.67,-1.45l-1.95,-1.09l-1,0.1l-1.73,1.16l-1.86,0.74l-2.75,-0.03l-1.49,-1.01l-1.35,-1.26l-1.74,-1.16l-1.06,-0.29l-1.43,-0.08l-1.43,0.16l-4.48,2.19l-1.54,0.84l-0.65,0.1l-1.63,-0.1l-0.96,-1.84l-0.38,-1.76l-0.49,-1.32l-0.53,-0.97l-1.63,-1.9l-1.53,-0.62l-2.25,-0.76l-0.82,-0.51l-1.67,-1.26l-1.11,-0.36l-1.1,-0.08l-1.18,0.17l-4.44,1.3l-5.12,1.77l-3.11,0.66l-2.54,0.21l0.83,-1.75l-0.21,-0.86l-3.97,-8.56l-0.71,-0.72l-0.79,-0.25l-1.11,-0.15l-0.89,0.32l-1.79,1.1l-2.58,-0.65l-0.89,-0.68l0.5,-0.54l1.47,-0.85l1.22,-0.53l1,-0.29l1.83,-1.07l1.54,-1.57l1.01,-0.67l0.07,-0.47l0.47,-0.36l0.22,-0.42l-0.07,-0.47l-0.4,-0.5l-0.89,-0.47l-0.79,-0.29l-1.14,-0.18l-1,0.06l-0.79,-0.21l-0.57,-0.79l-3.01,-0.37l-0.6,-0.97l-2.18,-4.05l-0.53,-0.72l-4.16,-2.23l-2.25,-0.15l-1.26,-0.82l-1.39,-0.51l-0.97,-1.43l-0.82,-1.55l-1.9,-1.54l-0.46,-0.83l0.03,-0.93l-0.68,-1.33l-0.86,-0.64l-0.39,-0.43l0,-1.98l-0.46,-0.82l-2.91,-1.05l-1.61,-2.26l-3.16,-1.29l-0.25,-0.61l0.1,-1.15l-0.14,-1.12l-0.79,-0.71l-2.3,0.14l-1.15,0.58l-0.57,2.37l-0.61,1.36l-0.5,0.4l-0.58,0.03l-0.68,-0.53l-0.65,-0.72l-0.61,-0.43l-0.93,-0.22l-1.55,-1.25l0.04,-0.9l-0.32,-0.75l-1.52,-1.44l-0.1,-0.65l0.5,-1.36l0.82,-0.58l0.87,-0.29l1.04,-0.82l-0.29,-3.42l0.25,-0.43l1.4,-0.72l0.75,-0.9l-0.29,-1.91l-0.82,-0.79l-4.25,-0.1l-0.49,0.6l-0.26,0.51l-0.4,0.51l-0.43,-0.11l-0.86,-0.61l-1.15,-0.25l-2.7,-1.54l-0.79,-0.03l-1.41,-0.43l-1.54,-0.14l-3.59,0.11l-4.07,1.2l-0.61,0.08l-1.19,0.4l-0.79,0.36l-1.68,-0.24l-0.58,0.32l-0.64,1.18l-0.9,0.6l0,0l-0.82,-2.69l-0.48,-1.31l-0.35,-0.72l-0.19,-1.45l-0.24,-0.56l-0.38,-0.47l-2.22,-2.21l-1.24,-2.39l-0.85,-0.75l-1.92,-0.91l-0.42,-0.35l-0.47,-0.85l-1.51,-1.73l-1.38,-2.77l-0.18,-0.83l-0.41,-0.85l-0.14,-0.58l0.05,-1.5l0.33,-0.68l1.7,-1.68l0.39,-0.64l0.11,-0.81l-0.02,-3.42l-0.03,-0.65l-0.12,-0.45l-1.63,-3.21l-0.28,-1.16l0,0l2.31,-0.1l0.31,-0.05l0.74,-0.34l0.65,-0.14l2.22,0l0.5,0.06l0.46,0.18l1.45,1.28l0.71,0.31l0.73,0l1.06,-0.41l1.23,-0.19l0.35,-0.22l0.54,-0.87l0.13,-0.44l0.18,-1.44l0.59,-1.26l0.49,-0.64l0.81,-0.77l0.57,-0.35l0.61,-0.13l3.19,0.03l0,0l2.03,2.08l0.71,1.21l0.64,0.47l1.29,-0.02l0.75,0.09l2.3,1.06l1.01,0.14l1.21,0.02l1.32,-0.16l0.42,-0.25l1.56,-1.49l0.65,-0.49l3.75,-1.79l0.7,-0.15l2.22,0l0.67,0.1l2.02,0.98l0.62,0.16l0.84,0.06l3.12,-0.03l0.83,0.08l0.44,0.13l3.01,1.52l0.27,0.09l1.01,0.1l1.42,-0.06l1.32,-1.31l0.4,-0.27l0.46,-0.15l1.78,-0.13l1.07,-0.39l0.63,-0.11l3.21,-0.05l1.7,-0.53l3.98,-0.05l1.55,-0.5l1.49,-0.13l0.69,-0.15l1.29,0.73l1.49,0.69l1.58,-0.68l7.06,-3.43l1.14,-0.26l0.89,-0.39l1.01,-0.22l0.75,-0.34l1.15,-0.27l0.75,-0.34l1.15,-0.27l0.75,-0.34l1.49,-0.19l0.42,-0.12l2.54,-1.23l1.61,-1.4l1.4,-0.7l0.42,-0.12l1.35,-0.15l1.03,-0.4l1.64,-0.24l0.64,-0.43l1.74,-1.63l1.4,-0.71l0.42,-0.12l1.35,-0.15l1.03,-0.41l1.07,-0.09z" fill="black" id="GE-SJ"/>
   <path class="land" d="m566.99,270.81l1.3,1.68l1.49,2.61l1.5,2.23l0.37,2.24l0,0l1.49,2.61l1.68,1.3l0,0l0.74,1.68l0.19,1.68l0.37,1.67l0.93,1.5l0,0l1.68,0.37l1.3,-0.56l0,0l0.19,-2.42l-0.19,-1.87l1.68,-0.56l1.87,0l2.6,1.12l0,0l1.87,1.68l1.86,1.3l1.09,1.27l-0.18,0.45l0,0l-0.13,0.56l0,0l-0.47,1.17l-0.08,0.48l0,0l-0.03,0.51l0,0l-0.04,1.75l0.09,0.92l0,0l0.17,0.24l0,0l0.23,0.1l0.25,0l0.99,-0.38l0.89,-0.11l0,0l0.55,-0.02l0,0l0.83,0.1l0.28,0.17l0,0l0.21,0.41l0.05,0.49l-0.05,2.32l0,0l0,1.9l1.2,-0.78l0.78,-0.35l0,0l1.01,-0.62l0,0l0.64,-0.99l0.9,-1.88l0.37,-0.4l0,0l0.37,-0.2l0,0l0.98,-0.24l1.07,-0.4l0.49,-0.05l1.31,0.07l1.21,0.46l0,0l0.48,0.08l0,0l1.63,0.15l0.78,0.32l0,0l0.28,0.1l0,0l1.46,0.22l0.91,0.38l0.47,0.1l2.36,0.06l2,-0.07l0,0l3.09,2.93l0.42,0.44l0.33,0.51l0.14,0.73l-0.02,5.66l0.06,0.65l0.13,0.44l1.83,3.61l0.83,1l2.87,2.83l0.41,0.51l0.51,0.9l1.38,1.58l0.17,0.46l0.06,0.49l-0.02,2.18l-0.13,0.64l-0.64,1.38l-0.65,0.95l-0.52,0.15l-0.42,-0.04l-1.01,-0.44l-1,-0.12l-3.6,-0.05l-0.44,0.08l-0.34,0.25l-0.66,1.74l-0.1,1.12l0.08,1.44l0.43,1.03l0.12,0.62l0.06,2.96l-0.06,0.76l-0.17,0.39l-0.2,0.17l-2.49,1.29l-0.27,0.49l-0.03,0.47l0.08,0.63l0.45,1.04l0.2,1.19l0.22,0.33l0,0l0.66,1.74l0.03,0.24l-0.13,0.37l-0.61,0.81l-0.33,0.62l-0.37,0.4l-0.39,0.2l-0.97,0.09l-8.4,-0.05l-0.97,-0.11l-0.56,-0.28l-0.82,-0.75l-1.07,-1.18l-0.48,-0.91l-0.5,-0.64l-0.68,-0.65l-0.53,-0.24l-0.37,0.08l-0.85,0.38l-1.22,0.94l-1.28,0.62l-1.4,0.37l-5.55,2.7l-1.03,0.19l-1.23,-0.08l-1.47,-0.54l-1.92,-0.03l-0.79,-0.53l-1.15,-0.56l-0.92,-0.18l-2.41,-0.08l-3.76,1.77l-0.68,0.12l-1.43,0.02l-1.41,-0.13l-0.91,-0.38l-0.5,-0.11l-3.49,-0.12l-1.07,-0.41l-0.68,-0.13l-9.92,-0.09l-0.68,-0.13l-1.85,-0.91l-0.48,-0.15l-0.88,-0.07l-4.54,-0.05l0,0l0.14,-2.64l-0.15,-0.75l-0.17,-0.22l-0.86,-0.54l-1.44,-0.65l-1.14,-0.29l-0.76,-0.33l-1,-0.26l-0.89,-0.38l-1.34,-0.15l-4.66,-0.02l-2.09,1.05l-0.43,0.13l-0.8,0.06l-2.92,-0.07l-0.71,-0.34l-2.22,-2.16l-0.64,-0.48l-1.41,-0.64l-2.14,-0.09l-0.51,-0.14l-0.2,-0.2l-0.1,-0.26l-0.16,-1.04l-0.43,-1.21l-0.06,-0.99l0.07,-1.14l-5.99,0.01l-0.45,-0.05l-0.39,-0.2l-0.19,-0.38l-0.18,-1.2l-0.35,-0.91l-0.16,-1.28l-0.15,-0.45l-0.73,-0.8l-1.43,-0.83l-0.43,-0.44l-0.25,-0.4l-0.14,-0.8l-0.01,-2.5l-0.25,-0.54l-0.41,-0.36l-2.53,-1.21l-0.64,-0.11l-1.3,-0.07l-0.47,-0.12l-0.41,-0.25l-1.08,-0.98l-0.53,-0.35l-0.63,-0.14l-2.27,-0.11l-2.31,-1.09l-0.66,-0.08l-0.66,0.04l-1.21,0.46l-1.06,0.11l0,0l-0.11,-1.05l-0.47,-1.18l-0.07,-1.13l0.13,-0.95l0.63,-1.24l0.61,-0.76l1.21,-1.16l0.52,-0.39l0.93,-0.5l1.98,-1.77l1.13,-0.66l0.4,-0.57l0.1,-0.96l-0.02,-8.55l0.13,-0.79l0.38,-0.88l0.11,-1.04l0.69,-0.5l4.33,-2.06l0.87,-0.73l0.73,-1.22l1.42,-1.59l0.64,-1.25l0.33,-1.25l0.39,-0.88l0.23,-1.62l0.35,-0.73l0.27,-1.14l0.61,-1.24l0.59,-0.57l2.41,-1.17l0,0l1.01,0.78l5.08,5l3.4,1.69l0.33,0.26l0,0l0.18,0.21l0,0l0.32,0.62l0,0l0.15,0.23l0,0l0.5,0.63l0.93,-1.85l2.23,0l3.36,0.93l2.79,0.93l0,0l-1.11,1.68l0,0l0.37,1.49l0.74,2.05l1.12,1.12l2.05,0.56l1.87,0l1.67,-1.12l2.05,-4.29l0.19,-2.05l1.68,0.56l0,0l2.23,-0.19l0,0l1.91,-0.69l-0.07,-0.09l0,0l-0.12,-0.38l0,0l-0.05,-1.17l0,0l-0.04,-0.25l0,0l-0.13,-0.58l0.37,-2.05l1.67,-2.99l2.05,0.56l2.43,0l2.79,-2.05l2.61,-0.93l0,0l2.43,-1.3l0,0l1.86,-2.05l1.68,-0.19l0.93,1.12z" id="GE-SK"/>
   <path class="land" d="m532.68,207.53l0.69,0.05l0.59,-0.07l2.27,-0.89l0.73,-0.1l0.77,0.12l1.69,2.21l0.91,0.3l0.88,-0.28l0.97,-0.94l0.84,-0.21l0.73,0.26l1.41,1.48l0.73,0.12l1.28,0.01l1.67,0.72l2.84,0.87l1.99,1.01l0.92,0.02l1.8,-0.53l1.14,-1.04l1.08,-1.27l3.11,-3.11l1.15,-1l1.03,-0.5l2.99,0.37l3.16,-0.98l2.03,-0.82l1.1,-0.16l0.77,0.04l1.74,0.69l1.69,-0.16l1.14,-0.39l1.29,-0.85l0.7,-0.32l1.46,-0.33l0.53,1.55l0,0l0.09,0.9l0,0l0.21,0.69l0,0l0.26,0.49l0,0l0.87,1.78l0.34,0.48l1.98,2.03l0.78,0.57l0,0l0.31,0.09l0,0l3.08,0.11l1.94,0.69l0.19,0.2l0.12,0.41l0.01,1.58l0,0l0.02,0.32l0,0l0.15,0.6l0.64,1.27l0.77,0.98l0.49,0.87l0,0l0.29,0.29l0,0l0.38,0.2l1.12,0.28l1.03,0.61l0.66,1.14l0.33,1.27l0,0l0.72,1.11l1.01,0.12l0,0l0.52,0.26l0,0l0.44,0.65l0,0l0.76,1.47l0,0l0.09,0.27l0,0l0.04,0.41l-0.11,0.39l0,0l-0.08,0.11l0,0l-0.34,0.19l-2.18,0.65l-0.32,0.27l-0.15,0.58l-0.03,0.66l0.13,1.35l0.27,0.52l0.3,0.36l1.81,1.68l2.66,1.32l0.91,0.14l0,0l2.68,-0.01l0,0l1.38,0.14l1.26,0.62l0,0l0.26,0.17l0,0l1.61,1.42l0.77,0.39l0.93,0.63l0.48,0.2l0.13,0.41l0,0l0.34,0.9l0,0l0.53,0.76l0.6,0.5l2.55,1.25l1.28,0.34l0.74,0.37l0,0l0.54,0.22l0,0l1.52,0.82l1.98,1.86l0.69,0.32l0,0l0.3,0.04l0,0l1.2,0.16l0,0l0.75,0.32l0,0l0.77,0.22l0.22,0.14l0.15,0.24l0.1,0.88l-0.03,1.46l-0.2,1.07l-1.53,2.93l-0.08,0.41l0.04,0.29l1.32,2.61l0.85,1.1l0.5,0.9l1.33,1.48l0.5,0.9l0.84,1.1l0,0l0.16,0.44l0,0l0.07,0.8l-0.01,12.03l-0.14,1.11l-1.82,3.59l-0.32,0.44l-1.21,0.74l-1.4,1.19l-0.98,0.55l-0.36,0.41l-0.56,1.11l-0.32,1.26l-0.53,1.13l0,0l-0.44,0.62l-0.46,0.42l0,0l-1.05,0.55l-0.5,0.37l-0.42,0.46l-0.26,0.71l-0.01,0.75l0.12,0.58l0.36,0.74l0.3,1.12l0.31,0.46l0,0l0.92,0.95l0,0l0.35,0.44l0.21,0.72l0.01,0.45l-0.14,0.73l-0.46,0.52l-0.75,0.38l-0.86,0.63l0,0l-0.23,0.09l0,0l-0.38,-0.04l-0.95,-0.72l-0.77,-0.4l0,0l-1.24,-0.97l-0.52,-0.24l0,0l-0.86,-0.4l-0.29,0l-0.38,0.17l-0.28,0.29l-0.96,1.86l-2,0.07l-2.36,-0.06l-0.47,-0.1l-0.91,-0.38l-1.46,-0.22l0,0l-0.28,-0.1l0,0l-0.78,-0.32l-1.63,-0.15l0,0l-0.48,-0.08l0,0l-1.21,-0.46l-1.31,-0.07l-0.49,0.05l-1.07,0.4l-0.98,0.24l0,0l-0.37,0.2l0,0l-0.37,0.4l-0.9,1.88l-0.64,0.99l0,0l-1.01,0.62l0,0l-0.78,0.35l-1.2,0.78l0,-1.9l0,0l0.05,-2.32l-0.05,-0.49l-0.21,-0.41l0,0l-0.28,-0.17l-0.83,-0.1l0,0l-0.55,0.02l0,0l-0.89,0.11l-0.99,0.38l-0.25,0l-0.23,-0.1l0,0l-0.17,-0.24l0,0l-0.09,-0.92l0.04,-1.75l0,0l0.03,-0.51l0,0l0.08,-0.48l0.47,-1.17l0,0l0.13,-0.56l0,0l0.18,-0.45l-1.09,-1.27l-1.86,-1.3l-1.87,-1.68l0,0l-2.6,-1.12l-1.87,0l-1.68,0.56l0.19,1.87l-0.19,2.42l0,0l-1.3,0.56l-1.68,-0.37l0,0l-0.93,-1.5l-0.37,-1.67l-0.19,-1.68l-0.74,-1.68l0,0l-1.68,-1.3l-1.49,-2.61l0,0l-0.37,-2.24l-1.5,-2.23l-1.49,-2.61l-1.3,-1.68l0,0l-0.93,-1.12l-1.68,0.19l-1.86,2.05l0,0l-2.43,1.3l0,0l-2.61,0.93l-2.79,2.05l-2.42,0l-2.06,-0.56l-1.67,2.99l-0.37,2.05l0.13,0.58l0,0l0.04,0.25l0,0l0.05,1.17l0,0l0.12,0.38l0,0l0.07,0.09l-1.91,0.69l0,0l-2.23,0.19l0,0l-1.68,-0.56l-0.19,2.05l-2.05,4.29l-1.67,1.12l-1.87,0l-2.05,-0.56l-1.12,-1.12l-0.74,-2.05l-0.37,-1.49l0,0l1.11,-1.68l0,0l-2.79,-0.93l-3.36,-0.93l-2.23,0l-0.93,1.85l-0.5,-0.63l0,0l-0.15,-0.23l0,0l-0.32,-0.62l0,0l-0.18,-0.21l0,0l-0.33,-0.26l-3.4,-1.69l-5.08,-5l-1.01,-0.78l0,0l0.07,-1.24l0.19,-0.86l0,0l0.29,-0.61l0.13,-0.6l0.02,-3.36l-0.09,-0.77l-0.4,-0.89l-0.3,-1.12l-0.42,-1.02l0.02,-0.73l0.44,-1.01l0,0l0.24,-1l0,0l0.54,-1.11l0,0l0.15,-0.24l0,0l0.51,-0.46l0,0l1.25,-0.61l0,0l0.54,-0.22l0.65,-0.47l0.59,-0.57l0.58,-0.76l0.38,-0.72l0,-1.83l-1.31,-1.12l-2.05,-0.37l-2.42,-0.93l-1.68,-0.38l-2.24,-1.3l-0.74,-1.87l-0.19,-1.86l2.05,-0.75l0.19,-2.04l-1.31,-1.68l-1.49,-0.56l-0.37,-1.31l0,-1.67l0.56,-3.17l0,-2.61l-0.75,-3.54l1.49,-3.92l0.75,-3.72l0,0l0.37,-2.61l0,0l-0.37,-2.61l-1.49,-1.31l0,0l-0.19,-2.23l0,0l0.19,-1.87l-1.49,-1.49l0.18,-2.42l0,0l2.61,-2.42l0,0l2.43,-0.38l0.93,-2.05l1.49,-2.05l0.74,-1.86l0,0l3.17,-0.37l0,0l2.24,-1.12l2.42,-0.75l2.05,-1.3l0.19,-2.8l4.29,-0.18l2.42,-0.93l0,0l1.12,-3.36l0,-3.35l-0.19,-2.8l0,0l-0.36,-1.43l1,0.41l1.97,1.23l0.97,1.26l0.54,1.1l0.17,1.1l-0.16,1.61l-4.35,8.68l-1.36,1.19l-0.78,0.51l-0.77,0.28l-0.56,0.87l-0.52,0.62l-0.26,0.51l-0.08,0.59l0.14,1.28l3.53,5.27l1.05,1.1z" fill="black" id="GE-SO"/>
   <path class="land" d="m280.45,267.92l0.52,0.18l0.1,0.22l0.33,0.18l0.06,0l-0.06,-0.22l0.52,0l0.36,0.35l-0.03,0.4l0.23,0.44l0,0.09l-0.2,0.13l-0.46,1.1l-0.62,0.57l-0.36,-0.04l-0.03,-0.09l0,-1.06l-0.13,-0.53l0,-0.4l-0.13,-0.31l-0.16,-0.31l-0.1,-0.35l0,-0.26l0.16,-0.09zm96.81,-163.06l-0.31,0.53l-0.14,0.67l0.19,0.7l0.37,0.4l0.55,0.22l0.96,0.18l1.03,0.07l2.37,0.99l2.4,0.76l2,1.02l1.85,1.21l1.92,0.84l1.41,0.81l1.26,1.14l1.11,0.59l1.81,0.44l1.48,0.62l1.26,1.1l3.58,1.72l1.99,0.51l0.37,-0.26l0.15,-0.67l-0.15,-0.85l-1.45,-3.21l0.22,-0.78l0.52,-0.19l1.66,0.29l0.92,0.03l1.48,-0.6l1.14,-0.11l4.87,-1.45l1.74,-0.04l1.33,0.26l0.74,0.55l0.78,0.41l0.67,0.63l1.03,0.15l2.62,-0.63l2.62,0.92l3.51,0.22l0.33,0.66l0.11,1.33l0.33,0.92l0.48,0.48l0.81,0.44l1.55,0.63l0.88,0.66l0.11,0.78l-0.37,1.73l-0.41,1.18l1.44,0l1.33,0.15l2.36,0.33l1.99,0.41l1.92,0.85l1.84,1.18l1.73,0.67l0.77,0.41l0.11,0.59l-0.59,1.18l-0.59,0.85l-0.63,1.18l0.07,1.58l0.22,1.18l1.1,1.84l0.77,1.07l2.06,1.95l6.28,4.32l6.46,5.87l1.14,1.18l0.95,1.66l0.32,0.28l0,0l-0.94,-0.48l-0.69,-0.51l-1.08,0.99l-1.24,0.7l-1.82,1.72l-1.02,0.55l-0.7,0.6l-0.37,0.5l-0.55,1.15l-0.37,1.4l-0.64,0.99l-2.55,0.86l-0.22,0.15l-0.2,0.4l-0.05,0.47l0.06,6.02l-0.15,1.06l-0.57,0.78l-0.98,0.86l-0.42,0.21l-1,0.25l-0.87,0.39l-0.7,0l-0.42,-0.32l-0.53,-1.08l-0.12,-1.36l-0.12,-0.42l-0.54,-0.91l-0.51,-0.26l-0.95,0.02l-1.22,0.48l-0.68,0.1l-6.15,0.01l-1.56,0.51l-2.23,0.11l-0.48,0.11l-0.88,0.38l-0.74,0.03l-0.44,-0.15l-0.4,-0.29l-1.98,-2l-0.73,-0.57l-1.27,-0.61l-1.64,-0.24l-0.9,-0.39l-1.15,-0.29l-2.99,-1.54l-0.54,-0.13l-0.56,0.17l-0.96,0.75l-0.78,0.42l-1.75,1.49l-2.79,1.36l-0.89,-0.01l-0.88,-0.4l-0.76,-0.14l-4.21,-0.05l-0.74,-0.18l-3.12,-1.62l-1.42,-0.65l-1.98,-0.18l-1.03,-0.42l-0.59,-0.12l-4.5,-0.04l-0.98,-0.1l-4.68,-2.33l-0.81,-0.14l-2.53,-0.05l-0.59,0.09l-0.25,0.15l-0.22,0.53l-0.15,1.08l-0.35,0.92l-0.26,1.62l-1.29,2l-0.41,0.37l-0.59,0.18l-1.78,0.12l-0.9,0.37l-0.48,0.1l-4.46,0l-0.64,0.14l-0.35,0.24l-0.33,0.45l-2.67,5.42l-0.74,1.21l1.05,0.96l0.69,1.23l0.69,0.73l2.28,1.16l1.12,0.88l0.89,0.46l2.57,2.39l1.73,1.02l1.64,0.24l0.89,0.39l1.28,0.33l1.26,0.64l1.24,0.96l3.31,1.65l0.81,0.82l0.55,1.02l1.32,1.5l0.64,1.12l1.09,1.05l-1.26,0.9l-1.15,0.62l-0.46,0.43l-0.35,0.52l-0.14,1.08l0.01,4.02l0.09,0.93l0.74,1.54l1.51,1.73l0.4,0.78l0.85,1.1l0.41,0.78l0.86,1.1l1.03,2.05l0.94,1.23l1.24,2.52l0.29,1.77l0.81,1.46l0,0l-1.71,-0.17l-1.43,0.07l-0.56,0.24l-0.98,0.73l-0.78,0.21l-4.6,-0.05l-0.96,0.15l-0.34,0.24l-0.26,0.32l-0.84,1.77l-0.36,0.5l-0.58,0.52l-1.18,0.64l-0.73,0.8l-0.19,0.61l0.01,3.01l-0.15,0.79l-0.24,0.34l-0.32,0.25l-1.9,0.88l-0.38,0.39l-0.16,0.41l-0.06,0.77l0.05,6.69l-0.06,0.61l-0.16,0.43l-0.38,0.49l-1.57,1.58l-0.67,1.15l-0.74,0.82l-2.19,2.13l-0.49,0.38l-1.04,0.56l-1.3,1.3l-2.92,5.76l-0.94,1.22l-1.03,2.02l-1.06,1.34l-1.03,1.58l-1.07,2.02l0.21,0.75l0.08,1.02l-0.01,0.99l-0.16,0.57l-0.34,0.27l-1.37,0.2l-1.49,0.48l-0.34,0.29l-0.09,0.6l0.47,1.18l0.12,0.86l0.01,11.22l-0.11,1.21l-0.45,1.23l-0.1,1.54l-0.13,0.49l-0.18,0.28l-0.37,0.32l-0.64,0.35l-0.95,0.69l-0.47,0.2l-0.84,-0.01l-0.9,-0.38l-0.49,-0.11l-0.69,-0.01l-0.9,0.15l0,0l-0.35,-0.95l-0.3,-0.42l-1.05,-0.58l-1,-0.24l-0.9,-0.42l-1.11,-0.13l-5.27,-0.07l-0.47,-0.09l-0.76,-0.35l-1.63,-0.23l-0.92,-0.6l-2.89,-2.9l-0.82,-0.65l-1.07,-0.28l-0.89,-0.38l-1.63,-0.26l-0.92,-0.38l-1.68,-0.25l-1.45,-0.79l-2.42,0.41l-0.76,0.33l-0.67,0.12l-5.67,-0.01l-0.66,0.2l-1.84,0.86l-1.77,0.31l-0.92,0.35l-2.2,0.25l-1.41,0.41l-0.59,0.07l-8.03,-0.07l-0.63,0.1l-0.9,0.35l-1.35,0.19l-0.42,0.13l-0.58,0.36l0,0l-0.2,-0.49l-0.36,-0.26l-0.66,-0.31l-0.46,-0.18l-0.16,-0.09l-0.82,-0.13l-0.1,0.04l-0.39,0.04l-0.43,0.09l-0.13,0.04l-0.56,0l-0.26,0l-0.69,0.09l-0.3,-0.04l-0.13,-0.04l-0.36,-0.13l-0.13,-0.18l-0.2,-0.04l-0.1,0.13l-0.13,0.04l-0.2,0.04l-0.46,0l-0.16,0.13l0.07,0.57l0.26,0.13l0.49,0.79l0.2,0l0.03,0.44l-0.16,0.22l0.2,0.75l0.16,0.79l0.13,0.88l0.33,0.79l0.29,0.53l0.13,0.26l0.03,0.4l-0.2,0.44l-0.23,0.22l-0.13,0.13l-0.13,0.09l-0.39,0.13l-0.23,0l-0.13,-0.09l-0.26,-0.35l-0.07,-0.22l-1.15,-1.58l-0.59,-0.53l-0.26,-0.7l-0.43,-0.44l-0.72,-1.06l-0.2,-0.31l-0.49,-0.66l-0.36,-0.31l-0.23,-0.44l-0.16,-1.72l-0.23,-0.44l-0.13,-0.09l-0.69,-0.13l0.16,-0.18l0.13,-0.26l0.18,-0.13l0.25,-0.04l-0.03,-0.22l-0.43,0.09l0.07,-0.22l0.23,-0.22l0.36,-0.04l0.1,-0.13l-0.07,-0.26l-0.43,-0.13l0.07,-0.79l-0.29,-0.75l-0.33,-0.57l-0.69,-0.97l0.07,-0.44l0.33,-0.79l0.52,-0.62l0.13,-0.4l0.33,-0.44l0.23,-0.13l0.13,0.09l0.2,0l0.1,-0.09l0.36,0.04l0.03,-0.13l-0.95,-0.31l-0.59,-0.75l-0.62,-0.31l-0.52,-0.04l-0.2,-0.26l-0.16,-0.18l-0.43,-0.26l-0.2,-0.13l0,-0.31l0.26,-0.09l0.43,-0.62l0.46,-1.37l0.16,-2.52l-0.46,-3.31l-0.17,-0.75l-0.65,-1.94l-0.46,-1.99l-0.43,-1.63l-0.69,-2.12l-0.66,-1.86l-0.39,-1.5l-0.59,-1.64l-0.13,-0.62l-0.2,-0.62l-0.36,-0.53l-0.23,-0.62l-0.26,-0.57l-0.29,-1.02l-0.56,-0.22l-0.89,-0.88l-0.23,-0.09l-0.46,-0.22l-0.23,-0.13l-0.59,-0.49l-0.52,-0.27l-0.36,-0.18l0.13,-0.62l0,-0.49l0.2,-0.49l0.16,-0.53l0.39,-0.04l0.36,-0.09l0.85,0l0.36,-0.09l0.36,-0.13l-0.07,-0.35l-0.2,0.04l-0.23,0.04l-0.23,0.22l-0.23,0.09l-0.75,-0.09l-0.2,0l-0.59,0.31l-0.26,0.75l-0.16,0.22l-0.1,0.44l0.07,0.53l-0.13,0l-0.07,-0.09l-0.16,-0.44l-0.03,-0.4l-0.43,-1.51l0,0l2.45,-1.33l3.07,-1.43l2.9,-1.47l0.75,-0.86l0.33,-0.67l0.33,-0.45l2.25,-2.3l0.8,-1.3l0.5,-0.54l0.45,-0.32l1.42,-0.63l0.89,-0.19l0.87,-0.35l1.87,-0.29l7.51,-3.66l1.04,-0.8l1.02,-0.55l1.75,-1.47l0.99,-0.54l1.02,-0.77l0.9,-0.48l1.74,-1.72l0.85,-1.37l2.44,-2.5l0.56,-1.02l1.56,-1.81l0.89,-1.82l1.11,-1.37l2,-0.67l1.12,-0.59l0.6,-0.67l0.26,-1.01l0.37,-0.9l0.26,-1.63l0.38,-0.96l0.08,-0.57l0.02,-2.54l-0.1,-0.72l-0.3,-0.63l-0.66,-0.85l-0.52,-0.94l-2.36,-2.43l-0.4,-0.67l-0.26,-1.03l-0.39,-0.89l-0.1,-1.16l-0.03,-6.92l-0.09,-0.48l-0.35,-0.73l-0.09,-0.49l-0.12,-2.88l-0.57,-1.6l0,-0.65l-1.44,-1.44l-0.17,-0.48l0.17,-0.45l0.65,-0.84l0.41,-0.76l0.71,-0.74l1.63,-0.81l1.04,-0.39l0.66,-0.9l0.68,-1.47l0.07,-0.67l-0.17,-0.51l-0.87,-0.9l-0.17,-0.58l-0.08,-1.79l-0.15,-0.46l-0.4,-0.48l-0.59,-0.29l-0.41,-0.42l-0.28,-0.68l0,-3.78l0.14,-0.64l0.4,-0.91l0.09,-0.63l-0.16,-0.74l-0.46,-0.27l-1.86,-0.04l-0.42,-0.1l-0.22,-0.17l-0.59,-1.03l-0.18,-1.31l-0.39,-1.06l-0.06,-0.55l0.21,-0.43l0.35,-0.32l2.46,-1.14l0.55,-0.13l1.81,-0.14l1.05,-0.39l1.76,-0.32l3.29,-1.58l1.96,-0.17l1.54,-0.5l2.22,-0.05l0.85,-0.1l0.95,-0.34l1.2,-0.17l0.41,-0.18l0.24,-0.28l0.47,-0.94l0.14,-1.2l0.17,-0.61l0.54,-1.13l0.33,-0.48l0.52,-0.48l1.13,-0.64l0.94,-0.8l1.66,-1.71l0.25,-0.39l1.91,-3.93l0.2,-0.89l1,-2.07l0.27,-1.69l0.47,-1.15l-0.09,-0.96l-1.11,-2.26l0.01,-4.02l0.13,-0.62l1.02,-2.16l0.26,-1l0.97,-2l0.3,-1.17l0.34,-0.76l0,0l0.05,-0.18l3.04,0.47l0.74,-0.15l3.01,-1.91l0.96,-0.01l1.22,0.25l1.11,0.4l0.93,0.69l1.79,1.87l1.11,0.18l1.77,0.1l0.99,-0.49l1.65,-1.75l0.85,-0.67l0.78,-0.01l1.89,0.28l0.66,-0.19l0.37,-0.48l0.33,-1l0.37,-0.63l0.44,-0.3l0.85,-0.23l3.29,-0.32l1.33,-0.38l2.47,-1.2l1.22,-0.04l0.7,0.29l1.63,1.1l1,0.88l0.19,0.78l-0.74,0.48l-0.63,0.56l-0.16,0.27z" fill="black" id="GE-SZ"/>
   <path class="land" d="m640.15,347.44l0.67,-1.82l0.7,-0.76l1.16,-0.61l1.41,-0.35l0.69,-0.38l0.27,-0.3l0.12,-0.43l-0.02,-0.62l-0.12,-0.47l-0.42,-0.87l-0.1,-0.63l0.06,-0.61l0.22,-0.36l0.91,-0.53l0.57,-0.12l0.74,0.11l1.59,0.78l0.36,0.1l0.35,-0.08l0.99,-0.45l1.01,-0.78l0.87,-0.46l0.39,-0.38l0.69,-1.35l0.26,-1.13l0.58,-1.26l0.52,-0.89l0.29,-0.23l0.38,-0.01l0.82,0.37l1.01,0.25l1.28,0.61l0.59,0.44l1.78,1.69l1.39,0.71l0.42,0.12l1.37,0.15l1.16,0.43l0,0l-0.7,1.06l-1.36,1.35l-0.74,0.58l-0.93,0.46l-0.59,0.5l-0.36,0.5l-0.09,0.56l0.1,0.39l0.17,0.21l1.84,0.95l0.58,0.52l0.37,0.49l1.28,2.64l0.09,0.78l0,2.23l0.12,0.44l0.34,0.43l0.99,0.56l1.13,0.83l2.53,1.24l0.94,0.14l2.13,0.01l0.47,-0.08l0.42,-0.19l1.02,-0.91l0.55,-0.72l0.84,-1.75l0.47,-0.48l0.75,-0.21l1.46,-0.03l0.57,0.08l0.3,0.27l0.02,0.37l-0.37,0.78l-0.24,1.46l-0.42,1.01l-0.24,1.61l-0.59,1.25l-0.55,0.9l-0.26,0.28l-0.91,0.54l-2.54,1.2l-0.76,0.16l-2.12,0.07l-1.52,0.52l-0.99,0.04l-0.81,-0.1l-6.1,-2.97l-0.98,-0.1l-3.03,0l-0.79,-0.15l-1.25,-0.89l-1.05,-0.6l-2.25,-2.18l-0.77,-0.47l-1.98,-0.16l-1.03,-0.42l-0.6,-0.12l-4.62,0.01l-0.58,-0.08l-0.31,-0.27l-0.03,-0.37l0.94,-2.29l0.05,-0.37l-0.09,-0.24l-0.27,-0.24l-0.79,-0.45l-1.06,-0.32l-0.76,-0.14z" id="GE-TB"/>
   <path class="land" d="m533.0625,180.0675c0,0 3,-2.375 2.9375,-2.4425c-0.0625,-0.0675 7.1875,-2.4325 7.125,-2.5c-0.0625,-0.0675 6.0625,-1.3075 6,-1.375c-0.0625,-0.0675 6.0625,-1.4325 6,-1.5c-0.0625,-0.0675 8.4375,0.0675 8.375,0c-0.0625,-0.0675 6.3125,-1.4325 6.25,-1.5c-0.0625,-0.0675 7.8125,0.8175 7.75,0.75c-0.0625,-0.0675 5.6875,3.8175 5.625,3.75c-0.0625,-0.0675 3.8125,0.5675 3.75,0.5c-0.0625,-0.0675 6.3125,2.0675 6.25,2c-0.0625,-0.0675 4.0625,2.5675 4,2.5c0.5625,1.1825 3.5625,4.6925 3.75,5c0.1875,0.3075 0.8125,1.0675 1.375,2.125c-0.8125,-0.9425 -2.4375,0.3175 -2.5,0.25c-0.0625,-0.0675 -2.6875,0.9425 -2.75,0.875c-0.0625,-0.0675 -2.3125,1.1925 -2.375,1.125c-0.0625,-0.0675 -2.0625,1.0675 -2.125,1c-0.0625,-0.0675 -2.0625,1.3175 -2.125,1.25c-0.0625,-0.0675 -1.4375,2.3175 -1.5,2.25c-0.0625,-0.0675 -1.3125,2.6925 -1.375,2.625c-0.0625,-0.0675 -0.9375,2.6925 -1,2.625c-0.0625,-0.0675 -1.0625,1.5675 -1.125,1.5c-0.0625,-0.0675 -0.8125,0.8175 -0.875,0.75c-0.0625,-0.0675 -2.0625,0.6925 -2.125,0.625c-0.0625,-0.0675 -1.9375,0.4425 -2,0.375c-0.0625,-0.0675 -1.0625,0.6925 -1.125,0.625c-0.0625,-0.0675 -1.1875,0.9425 -1.25,0.875c-0.0625,-0.0675 -1.4375,-0.1825 -1.5,-0.25c-0.0625,-0.0675 -1.6875,0.4425 -1.75,0.375c-0.0625,-0.0675 -1.3125,-0.8075 -1.375,-0.875c-0.0625,0.6825 -1.4375,-0.3075 -1.5,-0.375c-0.0625,0.6825 -1.8125,1.3175 -1.875,1.25c-0.0625,-0.0675 -1.5625,1.0675 -1.625,1c-0.0625,-0.0675 -1.6875,0.0675 -1.75,0c-0.0625,-0.0675 -1.4375,-0.1825 -1.5,-0.25c-0.0625,-0.0675 -1.4375,-0.1825 -1.5,-0.25c-0.0625,-0.0675 -1.0625,1.0675 -1.125,1c-0.0625,-0.0675 -1.3125,1.1925 -1.375,1.125c-0.0625,-0.0675 -0.8125,1.3175 -0.875,1.25c-0.0625,-0.0675 -0.6875,1.0675 -0.75,1c-0.0625,-0.0675 -1.0625,1.0675 -1.125,1c-0.0625,-0.0675 -0.9375,0.9425 -1,0.875c-0.0625,-0.0675 -1.6875,1.1925 -1.75,1.125c-0.0625,-0.0675 -1.4375,0.0675 -1.5,0c-0.0625,-0.0675 -1.1875,-0.0575 -1.25,-0.125c-0.0625,-0.0675 -2.1875,-0.4325 -1.9375,-0.4325c0.25,0 -2.5,-1.25 -2.5625,-1.3175c-0.0625,-0.0675 -1.1875,-0.6825 -1.25,-0.75c-0.0625,-0.0675 -1.1875,-0.0575 -1.25,-0.125c-0.0625,-0.0675 -1.3125,-0.1825 -1.375,-0.25c-0.0625,-0.0675 -1.3125,-1.1825 -1.1875,-1.3075c0.125,-0.125 -1.5,-0.25 -1.5625,-0.3175c0.5625,0.1825 -0.4375,1.0675 -0.5,1c0.4375,0.1825 -0.9375,0.5675 -1,0.5c0.6875,0.9325 -0.9375,-0.0575 -1,-0.125c-0.0625,-0.0675 -0.8125,-1.0575 -0.875,-1.125c-0.0625,-0.0675 -0.9375,-1.3075 -1,-1.375c-0.0625,-0.0675 -1.1875,0.6925 -1.25,0.625c-0.0625,-0.0675 -1.4375,0.1925 -1.5,0.125c-0.0625,-0.0675 -1.0625,0.8175 -1.125,0.75c-0.0625,-0.0675 -1.4375,-0.4325 -1.5,-0.5c-0.0625,-0.0675 -1.3125,-2.0575 -1.375,-2.125c-0.0625,-0.0675 -1.1875,-1.4325 -1.25,-1.5c-0.0625,-0.0675 -0.6875,-1.5575 -0.75,-1.625c-0.0625,-0.0675 -0.9375,-1.0575 -1.0625,-1.1825c-0.125,-0.125 0.25,-2.375 0.1875,-2.4425c-0.0625,-0.0675 0.8125,-2.1825 0.75,-2.25c-0.0625,-0.0675 2.0625,-0.5575 2,-0.625c-0.0625,-0.0675 1.6875,-1.6825 1.625,-1.75c-0.0625,-0.0675 1.3125,-1.8075 1.25,-1.875c-0.0625,-0.0675 1.1875,-2.4325 1.125,-2.5c-0.0625,-0.0675 1.1875,-2.4325 1.125,-2.5c-0.0625,-0.0675 0.6875,-1.9325 0.625,-2c-0.0625,-0.0675 -0.3125,-1.6825 -0.375,-1.75c-0.0625,-0.0675 -0.9375,-1.1825 -1,-1.25c-0.0625,-0.0675 -0.8125,-0.4325 -1.375,-0.875c-0.5625,-0.4425 -0.4375,-1.0575 -0.4375,-1.0575z" fill="black" id="svg55"/>
  </g>
 </g>
</svg>